<?xml version="1.0" encoding="UTF-8"?>
<!-- Generator: Adobe Illustrator 15.0.0, SVG Export Plug-In . SVG Version: 6.00 Build 0)  -->
<svg width="800" height="800" version="1.1" viewBox="0 0 800 800" xml:space="preserve" xmlns="http://www.w3.org/2000/svg">
<g transform="matrix(4.1641 0 0 4.1641 133.5 133.5)">
	<circle cx="64" cy="64" r="64" fill="#263740"/>
	<path d="M 3.902,86.052 C 12.889,110.533 36.404,128 64,128 c 0.688,0 1.368,-0.03 2.051,-0.052 C 57.064,103.467 33.549,86 5.953,86 5.266,86 4.585,86.03 3.902,86.052 Z" fill="#e6e6e6"/>
	
		<path d="m66.229 40.395c-1.971-2.472-7.503-1.295-13.833 2.94-4.399 3.104-11.73 16.229-12.525 19.29s4.902 2.307 6.121 1.59c1.929-1.133 7.375-9.52 7.919-10.357 0.545-0.838 4.149-0.883 6.917-1.471 0.793-3.061 4.313-10.315 5.401-11.992z" fill="#cc584c"/>
		<path d="m88.034 54.557c3.062 0.794 4.237 6.327 2.94 13.832-1.048 5.282-10.056 17.318-12.526 19.289-2.474 1.974-4.101-3.539-3.943-4.942 0.251-2.225 5.697-10.609 6.242-11.448 0.545-0.838-0.882-4.149-1.472-6.916 2.474-1.975 7.67-8.139 8.759-9.815z" fill="#cc584c"/>
		<path d="m107.63 0.51c-2.518-1.634-18.865-0.326-31.395 18.963-10.348 15.936-16.251 32.37-16.502 34.592 2.517 1.636 9.226 5.991 9.226 5.991s6.71 4.356 9.226 5.99c1.93-1.132 15.086-14.05 24.892-29.146 12.524-19.291 7.066-34.755 4.553-36.39z" fill="#e6e6e6"/>
		<circle cx="91.292" cy="25.67" r="10" fill="#263740"/>
		<path d="m88.023 30.702c-2.773-1.804-3.565-5.525-1.765-8.3 1.804-2.775 5.524-3.566 8.302-1.766 2.772 1.803 3.563 5.524 1.764 8.301-1.803 2.776-5.523 3.567-8.301 1.765z" fill="#c2e2f2"/>
		<path d="m101.1 10.574c3.08 2 6.449 3.199 9.863 3.658 0.352-7.678-1.936-12.818-3.326-13.725-1.395-0.902-7.021-0.9-13.892 2.542 1.808 2.933 4.275 5.524 7.355 7.525z" fill="#cc584c"/>
		
			<path d="m76.598 72.167c-0.6 0.923-1.845 1.188-2.768 0.589l-18.45-11.98c-0.923-0.601-1.188-1.846-0.589-2.769l2.18-3.354c0.6-0.922 1.844-1.188 2.768-0.588l18.449 11.982c0.924 0.6 1.188 1.844 0.59 2.769z" fill="#cc584c"/>
		
		<path d="m62.59 60.688c-0.6 0.925-1.336 2.097-2.104 3.402l9.079 5.896c0.881-1.233 1.651-2.385 2.252-3.309s1.336-2.096 2.104-3.4l-9.077-5.896c-0.883 1.232-1.655 2.382-2.254 3.307z" fill="#bf5347"/>
		<path d="m57.057 61.863c-6.617 10.188-14.949 30.831-10.549 33.688 4.398 2.857 19.866-13.148 26.484-23.341z" fill="#ffd464"/>
		<path d="m58.734 62.952c-6.617 10.188-9.165 20.28-5.692 22.535 3.474 2.256 11.655-4.178 18.272-14.365z" fill="#f2b255"/>
		
			<ellipse transform="matrix(-.8387 -.5446 .5446 -.8387 88.902 153.7)" cx="67.213" cy="63.687" rx="3.5" ry="16.999" fill="#cc584c"/>
	
	
		
			<ellipse transform="matrix(-.9264 -.3765 .3765 -.9264 7.8562 194.5)" cx="22.933" cy="96.481" rx="6" ry="4.5" fill="#ccc"/>
		<path d="m23.26 100.67c-3.07-1.247-4.801-4.125-3.865-6.428 0.535-1.318 1.84-2.144 3.424-2.39-2.438-0.35-4.674 0.545-5.424 2.39-0.936 2.303 0.795 5.181 3.865 6.428 1.313 0.533 2.646 0.661 3.829 0.479-0.607-0.088-1.22-0.231-1.829-0.479z" fill="#b3b3b3"/>
	
	
		
			<ellipse transform="matrix(-.7008 -.7133 .7133 -.7008 -5.6871 199.41)" cx="38.973" cy="100.9" rx="3.936" ry="2.951" fill="#ccc"/>
		<path d="m38.051 103.46c-1.521-1.549-1.813-3.732-0.65-4.875 0.664-0.655 1.664-0.811 2.683-0.547-1.376-0.845-2.955-0.892-3.887 0.023-1.163 1.145-0.871 3.326 0.651 4.876 0.651 0.663 1.422 1.089 2.182 1.285-0.344-0.207-0.676-0.453-0.979-0.762z" fill="#b3b3b3"/>
	
	
		
			<ellipse transform="matrix(-.9624 -.2718 .2718 -.9624 42.037 229.55)" cx="36.917" cy="111.86" rx="5.968" ry="4.476" fill="#ccc"/>
		<path d="m37.711 115.96c-3.169-0.896-5.195-3.552-4.521-5.931 0.382-1.362 1.582-2.318 3.121-2.736-2.447-0.078-4.562 1.05-5.101 2.956-0.673 2.378 1.354 5.035 4.525 5.93 1.356 0.384 2.688 0.363 3.839 0.054-0.607-0.02-1.232-0.094-1.863-0.273z" fill="#b3b3b3"/>
	<g fill="#ffd464">
	<path d="m27.953 21c0 4-1 5-5 5 4 0 5 1 5 5 0-4 1-5 5-5-4 0-5-1-5-5z"/>
	<path d="m14.953 50c0 4-1 5-5 5 4 0 5 1 5 5 0-4 1-5 5-5-4 0-5-1-5-5z"/>
	<path d="m28.953 68c0 4-1 5-5 5 4 0 5 1 5 5 0-4 1-5 5-5-4 0-5-1-5-5z"/>
	<path d="m81.953 101c0 4-1 5-5 5 4 0 5 1 5 5 0-4 1-5 5-5-4 0-5-1-5-5z"/>
	<path d="m117.95 78c0 4-1 5-5 5 4 0 5 1 5 5 0-4 1-5 5-5-4 0-5-1-5-5z"/>
	<path d="m114.95 43c0 4-1 5-5 5 4 0 5 1 5 5 0-4 1-5 5-5-4 0-5-1-5-5z"/>
	<path d="m64.953 7c0 4-1 5-5 5 4 0 5 1 5 5 0-4 1-5 5-5-4 0-5-1-5-5z"/>
	<path d="m47.953 28c0 4-1 5-5 5 4 0 5 1 5 5 0-4 1-5 5-5-4 0-5-1-5-5z"/>
</g></g>
</svg>
