<?xml version="1.0" encoding="UTF-8" standalone="no"?>
<!-- Created with Inkscape (http://www.inkscape.org/) -->

<svg
   height="169.79764"
   width="141.23518"
   version="1.1"
   id="svg886"
   sodipodi:docname="webrtc_logo.svg"
   inkscape:version="1.1.2 (b8e25be8, 2022-02-05)"
   xmlns:inkscape="http://www.inkscape.org/namespaces/inkscape"
   xmlns:sodipodi="http://sodipodi.sourceforge.net/DTD/sodipodi-0.dtd"
   xmlns="http://www.w3.org/2000/svg"
   xmlns:svg="http://www.w3.org/2000/svg"
   xmlns:rdf="http://www.w3.org/1999/02/22-rdf-syntax-ns#"
   xmlns:cc="http://creativecommons.org/ns#"
   xmlns:dc="http://purl.org/dc/elements/1.1/">
  <defs
     id="defs890" />
  <sodipodi:namedview
     id="namedview888"
     pagecolor="#ffffff"
     bordercolor="#666666"
     borderopacity="1.0"
     inkscape:pageshadow="2"
     inkscape:pageopacity="0.0"
     inkscape:pagecheckerboard="0"
     showgrid="false"
     fit-margin-top="0"
     fit-margin-left="0"
     fit-margin-right="0"
     fit-margin-bottom="0"
     inkscape:zoom="2.2754098"
     inkscape:cx="122.83501"
     inkscape:cy="146.78674"
     inkscape:window-width="1512"
     inkscape:window-height="916"
     inkscape:window-x="0"
     inkscape:window-y="38"
     inkscape:window-maximized="1"
     inkscape:current-layer="svg886" />
  <metadata
     id="metadata824">
    <rdf:RDF>
      <cc:Work
         rdf:about="">
        <dc:format>image/svg+xml</dc:format>
        <dc:type
           rdf:resource="http://purl.org/dc/dcmitype/StillImage" />
      </cc:Work>
    </rdf:RDF>
  </metadata>
  <g
     transform="matrix(0.57670517,0,0,0.57670517,-73.599027,-196.44729)"
     id="g884">
    <g
       fill="#333333"
       id="g838">
      <path
         d="m 161.87,627.52 -6.9796,-25.887 -7.068,25.887 q -0.8246,2.945 -1.3252,4.2408 -0.4712,1.2664 -1.6786,2.2971 -1.2074,1.0013 -3.21,1.0013 -1.6198,0 -2.68,-0.61845 -1.0308,-0.589 -1.6786,-1.6786 -0.6479,-1.1191 -1.0602,-2.621 -0.4123,-1.5314 -0.73625,-2.8272 l -7.1858,-29.067 q -0.6479,-2.5327 -0.6479,-3.858 0,-1.6786 1.178,-2.8272 1.178,-1.1486 2.9156,-1.1486 2.3854,0 3.21,1.5314 0.8246,1.5314 1.443,4.447 l 5.6544,25.209 6.3318,-23.589 q 0.7068,-2.7094 1.2664,-4.123 0.55955,-1.4136 1.8259,-2.4444 1.26635,-1.0308 3.4456,-1.0308 2.2088,0 3.4162,1.0896 1.2369,1.0602 1.7081,2.3266 0.4712,1.2664 1.2664,4.1819 l 6.3907,23.589 5.6544,-25.209 q 0.4123,-1.9732 0.7657,-3.0922 0.38285,-1.1191 1.2664,-2.0026 0.91295,-0.8835 2.621,-0.8835 1.7081,0 2.8861,1.1486 1.2074,1.1191 1.2074,2.8272 0,1.2074 -0.6479,3.858 l -7.1858,29.067 q -0.73625,2.945 -1.2369,4.3292 -0.4712,1.3547 -1.6492,2.3854 -1.1486,1.0308 -3.269,1.0308 -2.0026,0 -3.21,-1.0013 -1.2075,-1.0013 -1.6787,-2.2382 -0.4712,-1.2664 -1.3252,-4.2997 z"
         id="path826" />
      <path
         d="m 208.25,620.69 h -15.726 q 0.0294,2.7388 1.0896,4.8298 1.0896,2.091 2.8566,3.1512 1.7964,1.0602 3.9463,1.0602 1.443,0 2.621,-0.32395 1.2074,-0.3534 2.3266,-1.0602 1.1191,-0.73625 2.0615,-1.5608 0.9424,-0.8246 2.4444,-2.2382 0.61845,-0.5301 1.767,-0.5301 1.2369,0 2.0026,0.67735 0.7657,0.67735 0.7657,1.9142 0,1.0896 -0.85405,2.5622 -0.85405,1.443 -2.5916,2.7978 -1.7081,1.3252 -4.3292,2.2088 -2.5916,0.8835 -5.9784,0.8835 -7.7454,0 -12.045,-4.4175 -4.2997,-4.4175 -4.2997,-11.986 0,-3.5634 1.0602,-6.5968 1.0602,-3.0628 3.0922,-5.2421 2.032,-2.1793 5.0065,-3.3278 2.9744,-1.178 6.5968,-1.178 4.712,0 8.0693,2.0026 3.3868,1.9732 5.0654,5.1243 1.6786,3.1512 1.6786,6.4201 0,3.0334 -1.7376,3.9463 -1.7376,0.8835 -4.8887,0.8835 z m -15.726,-4.5648 h 14.578 q -0.2945,-4.123 -2.2382,-6.155 -1.9142,-2.0615 -5.0654,-2.0615 -3.0039,0 -4.9476,2.091 -1.9142,2.0615 -2.3266,6.1256 z"
         id="path828" />
      <path
         d="m 228.22,595.01 v 12.281 q 2.2676,-2.356 4.6236,-3.5929 2.356,-1.2664 5.8311,-1.2664 4.0052,0 7.0091,1.9143 3.0334,1.8848 4.6826,5.5072 1.6787,3.5929 1.6787,8.5405 0,3.6518 -0.9424,6.7146 -0.91296,3.0334 -2.68,5.2716 -1.76704,2.2382 -4.2997,3.4751 -2.5032,1.2074 -5.5366,1.2074 -1.8554,0 -3.5046,-0.44175 -1.6198,-0.44175 -2.7683,-1.1486 -1.1486,-0.73625 -1.9732,-1.502 -0.79515,-0.7657 -2.1204,-2.2971 v 0.79515 q 0,2.2676 -1.0896,3.4456 -1.0896,1.1486 -2.7683,1.1486 -1.7081,0 -2.7388,-1.1486 -1.0013,-1.178 -1.0013,-3.4456 v -35.104 q 0,-2.4444 0.97185,-3.6812 1.0013,-1.2664 2.7683,-1.2664 1.8554,0 2.8566,1.2074 1.0013,1.178 1.0013,3.3868 z m 0.38285,23.884 q 0,4.8004 2.1793,7.392 2.2088,2.5622 5.7722,2.5622 3.0334,0 5.2126,-2.621 2.2088,-2.6505 2.2088,-7.5686 0,-3.1806 -0.91295,-5.4777 -0.91295,-2.2971 -2.5916,-3.534 -1.6786,-1.2664 -3.9168,-1.2664 -2.2971,0 -4.0936,1.2664 -1.7964,1.2369 -2.8272,3.6224 -1.0308,2.356 -1.0308,5.625 z"
         id="path830" />
      <path
         d="m 270.86,615.86 h -3.0628 v 13.871 q 0,2.7388 -1.2074,4.0346 -1.2074,1.2958 -3.1512,1.2958 -2.091,0 -3.2395,-1.3547 -1.1486,-1.3547 -1.1486,-3.9758 v -33.22 q 0,-2.8272 1.2664,-4.0936 1.2664,-1.2664 4.0936,-1.2664 h 14.224 q 2.945,0 5.036,0.26505 2.091,0.2356 3.7696,1.0013 2.032,0.85405 3.5929,2.4444 1.5608,1.5903 2.356,3.7107 0.8246,2.091 0.8246,4.447 0,4.8298 -2.7388,7.7159 -2.7094,2.8861 -8.246,4.0936 2.3266,1.2369 4.447,3.6518 2.1204,2.4149 3.7696,5.1538 1.6786,2.7094 2.5916,4.9182 0.9424,2.1793 0.9424,3.0039 0,0.85405 -0.55955,1.7081 -0.5301,0.8246 -1.4725,1.2958 -0.9424,0.50065 -2.1793,0.50065 -1.4725,0 -2.4738,-0.7068 -1.0013,-0.67735 -1.7376,-1.7376 -0.7068,-1.0602 -1.9437,-3.1217 l -3.5046,-5.8311 q -1.8848,-3.21 -3.3868,-4.8887 -1.4725,-1.6786 -3.0039,-2.2971 -1.5314,-0.61845 -3.858,-0.61845 z m 5.0065,-18.141 h -8.0693 v 11.868 h 7.8337 q 3.1512,0 5.301,-0.5301 2.1498,-0.55955 3.269,-1.8554 1.1486,-1.3252 1.1486,-3.6224 0,-1.7965 -0.91295,-3.1512 -0.91295,-1.3842 -2.5327,-2.0615 -1.5314,-0.6479 -6.0372,-0.6479 z"
         id="path832" />
      <path
         d="m 327.61,598.37 h -9.5418 v 31.364 q 0,2.7094 -1.2074,4.0346 -1.2075,1.2958 -3.1217,1.2958 -1.9437,0 -3.1806,-1.3252 -1.2074,-1.3252 -1.2074,-4.0052 V 598.37 h -9.5418 q -2.2382,0 -3.3278,-0.97185 -1.0896,-1.0013 -1.0896,-2.621 0,-1.6786 1.1191,-2.6505 1.1486,-0.97185 3.2984,-0.97185 h 27.801 q 2.2676,0 3.3573,1.0013 1.1191,1.0013 1.1191,2.621 0,1.6198 -1.1191,2.621 -1.1191,0.97185 -3.3573,0.97185 z"
         id="path834" />
      <path
         d="m 372.52,620.69 q 0,2.0615 -1.0308,4.4764 -1.0013,2.3854 -3.1806,4.712 -2.1793,2.2971 -5.566,3.7402 -3.3868,1.443 -7.8926,1.443 -3.4162,0 -6.214,-0.6479 -2.7978,-0.6479 -5.0949,-2.0026 -2.2676,-1.3842 -4.1819,-3.6224 -1.7081,-2.032 -2.9156,-4.5353 -1.2074,-2.5327 -1.8259,-5.3894 -0.589,-2.8566 -0.589,-6.0667 0,-5.2126 1.502,-9.3356 1.5314,-4.123 4.3586,-7.0386 2.8272,-2.945 6.6263,-4.4764 3.799,-1.5314 8.0988,-1.5314 5.2421,0 9.3356,2.091 4.0936,2.091 6.2728,5.1832 2.1793,3.0628 2.1793,5.8017 0,1.502 -1.0602,2.6505 -1.0602,1.1486 -2.5622,1.1486 -1.6786,0 -2.5327,-0.79515 -0.8246,-0.79515 -1.8554,-2.7388 -1.7081,-3.2101 -4.0346,-4.8004 -2.2971,-1.5903 -5.6838,-1.5903 -5.3894,0 -8.5994,4.0936 -3.1806,4.0936 -3.1806,11.633 0,5.036 1.4136,8.3932 1.4136,3.3278 4.0052,4.977 2.5916,1.6492 6.0667,1.6492 3.7696,0 6.3612,-1.8554 2.621,-1.8848 3.9463,-5.5072 0.55955,-1.7081 1.3842,-2.7683 0.8246,-1.0896 2.6505,-1.0896 1.5608,0 2.68,1.0896 1.1191,1.0896 1.1191,2.7094 z"
         id="path836" />
    </g>
    <g
       transform="matrix(3.9483,0,0,-3.9483,263.23,518.98)"
       id="g842">
      <path
         d="m 0,0 c 0,-7.534 -6.107,-13.642 -13.641,-13.642 -7.535,0 -13.642,6.108 -13.642,13.642 0,7.534 6.107,13.642 13.642,13.642 C -6.107,13.642 0,7.534 0,0"
         fill="#ff6600"
         id="path840" />
    </g>
    <g
       transform="matrix(3.9483,0,0,-3.9483,369.76,443.57)"
       id="g846">
      <path
         d="m 0,0 c 0,-7.533 -6.107,-13.642 -13.641,-13.642 -7.535,0 -13.642,6.109 -13.642,13.642 0,7.534 6.107,13.643 13.642,13.643 C -6.107,13.643 0,7.534 0,0"
         fill="#ffcc00"
         id="path844" />
    </g>
    <g
       transform="matrix(3.9483,0,0,-3.9483,238.1,442.38)"
       id="g850">
      <path
         d="m 0,0 c 0,-7.533 -6.107,-13.642 -13.642,-13.642 -7.533,0 -13.641,6.109 -13.641,13.642 0,7.534 6.108,13.643 13.641,13.643 C -6.107,13.643 0,7.534 0,0"
         fill="#0089cc"
         id="path848" />
    </g>
    <g
       transform="matrix(3.9483,0,0,-3.9483,345.82,518.98)"
       id="g854">
      <path
         d="m 0,0 c 0,-7.534 -6.107,-13.642 -13.643,-13.642 -7.533,0 -13.641,6.108 -13.641,13.642 0,7.534 6.108,13.642 13.641,13.642 C -6.107,13.642 0,7.534 0,0"
         fill="#009939"
         id="path852" />
    </g>
    <g
       transform="matrix(3.9483,0,0,-3.9483,303.93,394.5)"
       id="g858">
      <path
         d="m 0,0 c 0,-7.534 -6.108,-13.642 -13.642,-13.642 -7.534,0 -13.642,6.108 -13.642,13.642 0,7.534 6.108,13.642 13.642,13.642 C -6.108,13.642 0,7.534 0,0"
         fill="#bf0000"
         id="path856" />
    </g>
    <g
       transform="matrix(3.9483,0,0,-3.9483,262.04,443.57)"
       id="g862">
      <path
         d="M 0,0 C 0,-0.287 0.025,-0.568 0.043,-0.851 6.094,0.545 10.61,5.955 10.61,12.43 c 0,0.287 -0.025,0.569 -0.043,0.852 C 4.516,11.885 0,6.475 0,0"
         fill="#fc0007"
         id="path860" />
    </g>
    <g
       transform="matrix(3.9483,0,0,-3.9483,269.15,470.24)"
       id="g866">
      <path
         d="m 0,0 c 2.351,-4.11 6.769,-6.887 11.843,-6.887 2.068,0 4.021,0.474 5.778,1.298 -2.35,4.11 -6.768,6.887 -11.843,6.887 C 3.71,1.298 1.757,0.824 0,0"
         fill="#1cd306"
         id="path864" />
    </g>
    <g
       transform="matrix(3.9483,0,0,-3.9483,238.1,518.98)"
       id="g870">
      <path
         d="M 0,0 C 0,-3.333 1.198,-6.383 3.184,-8.752 5.168,-6.383 6.366,-3.333 6.366,0 6.366,3.333 5.168,6.383 3.184,8.752 1.198,6.383 0,3.333 0,0"
         fill="#0f7504"
         id="path868" />
    </g>
    <g
       transform="matrix(3.9483,0,0,-3.9483,162.91,491.83)"
       id="g874">
      <path
         d="m 0,0 c 1.657,-0.716 3.481,-1.117 5.401,-1.117 5.024,0 9.401,2.723 11.769,6.766 C 15.513,6.365 13.688,6.765 11.769,6.765 6.745,6.765 2.367,4.042 0,0"
         fill="#0c5e87"
         id="path872" />
    </g>
    <g
       transform="matrix(3.9483,0,0,-3.9483,196.44,389.95)"
       id="g878">
      <path
         d="m 0,0 c -0.032,-0.38 -0.059,-0.762 -0.059,-1.151 0,-6.47 4.509,-11.875 10.553,-13.277 0.031,0.38 0.058,0.762 0.058,1.15 C 10.552,-6.808 6.044,-1.401 0,0"
         fill="#6b0001"
         id="path876" />
    </g>
    <g
       transform="matrix(3.9483,0,0,-3.9483,201.47,512.31)"
       id="g882">
      <path
         d="M 0,0 H -2.134 C -4.018,0 -5.55,1.527 -5.55,3.406 v 19.316 c 0,1.879 1.532,3.407 3.416,3.407 h 26.759 c 1.884,0 3.415,-1.528 3.415,-3.407 V 3.406 C 28.04,1.527 26.509,0 24.625,0 h -9.116 l -18.29,-8.966 z"
         fill="#ffffff"
         id="path880" />
    </g>
  </g>
</svg>
