<?xml version="1.0" encoding="UTF-8" standalone="no"?>
<!-- Created with Inkscape (http://www.inkscape.org/) -->

<svg
   width="177.93646mm"
   height="88.949226mm"
   viewBox="0 0 177.93646 88.949226"
   version="1.1"
   id="svg5"
   inkscape:version="1.1.2 (b8e25be8, 2022-02-05)"
   sodipodi:docname="cunicu_logo_dark.svg"
   xmlns:inkscape="http://www.inkscape.org/namespaces/inkscape"
   xmlns:sodipodi="http://sodipodi.sourceforge.net/DTD/sodipodi-0.dtd"
   xmlns:xlink="http://www.w3.org/1999/xlink"
   xmlns="http://www.w3.org/2000/svg"
   xmlns:svg="http://www.w3.org/2000/svg">
  <sodipodi:namedview
     id="namedview7"
     pagecolor="#ffffff"
     bordercolor="#666666"
     borderopacity="1.0"
     inkscape:pageshadow="2"
     inkscape:pageopacity="0.0"
     inkscape:pagecheckerboard="0"
     inkscape:document-units="mm"
     showgrid="false"
     inkscape:zoom="0.75925972"
     inkscape:cx="298.31689"
     inkscape:cy="293.70714"
     inkscape:window-width="1312"
     inkscape:window-height="916"
     inkscape:window-x="0"
     inkscape:window-y="38"
     inkscape:window-maximized="0"
     inkscape:current-layer="g1782"
     fit-margin-top="4"
     fit-margin-left="4"
     fit-margin-right="4"
     fit-margin-bottom="4"
     lock-margins="true"
     inkscape:snap-page="true" />
  <defs
     id="defs2" />
  <g
     inkscape:label="Layer 1"
     inkscape:groupmode="layer"
     id="layer1"
     transform="translate(-15.618505,-149.3409)">
    <use
       x="0"
       y="0"
       xlink:href="#path1263"
       id="use5372"
       transform="translate(32.867838)"
       width="100%"
       height="100%"
       style="fill:#cccccc" />
    <path
       id="path9516"
       style="fill:#aa8800;fill-opacity:1;stroke:none;stroke-width:1.01017;stroke-miterlimit:4;stroke-dasharray:none"
       d="m 20.61272,182.13022 c 6.263914,2.19296 13.240379,1.8699 19.477401,-0.25077 3.750446,-1.3138 7.366388,-3.36284 9.919718,-6.46589 -5.568559,-2.24974 -11.8103,-2.33158 -17.641723,-1.16345 -4.367199,0.92658 -8.711648,2.60751 -12.080712,5.61271 -0.8089,0.7384 -0.982195,1.97658 0.325316,2.2674 z"
       inkscape:transform-center-y="3.3052067"
       inkscape:transform-center-x="15.313761"
       sodipodi:nodetypes="cccc" />
    <path
       id="path7408"
       style="fill:#d4aa00;stroke:none;stroke-width:0.999999px;stroke-linecap:butt;stroke-linejoin:miter;stroke-opacity:1"
       d="M 40.007812 15.119141 C 29.553038 18.84893 45.418105 32.253655 48.699219 37.859375 C 75.153965 66.050229 110.34044 84.875345 146.62695 97.236328 C 115.17377 117.98609 92.402704 149.70643 78.494141 184.38477 C 70.672953 203.6418 63.800375 223.39757 58.269531 243.39062 C 58.065286 247.17934 60.063077 252.21774 64.556641 252.13281 L 159.2793 252.13281 C 172.99477 248.84814 163.84931 232.17418 164.9043 222.65234 C 163.80937 199.26342 166.72025 175.41131 174.37695 153.25977 C 179.44338 139.70562 194.79355 136.35153 207.55664 134.96289 C 219.35891 133.0582 231.83542 130.68605 241.69336 123.54297 C 247.14132 114.40449 238.71565 104.01303 235.66992 95.242188 C 229.54986 80.771624 216.16456 69.722341 200.37891 67.986328 C 189.2083 65.551859 176.90145 68.065775 166.29883 66.591797 C 144.04426 44.660521 115.62119 29.15663 84.863281 23.300781 C 69.938343 20.490891 55.092515 16.854208 40.007812 15.119141 z M 219.19531 84.197266 A 5.8683811 5.8683811 0 0 1 225.06445 90.066406 A 5.8683811 5.8683811 0 0 1 219.19531 95.933594 A 5.8683811 5.8683811 0 0 1 213.32812 90.066406 A 5.8683811 5.8683811 0 0 1 219.19531 84.197266 z "
       transform="matrix(0.26458333,0,0,0.26458333,15.618505,149.3409)" />
    <circle
       style="fill:#d4aa00;fill-opacity:1;stroke:none;stroke-width:0.765213;stroke-miterlimit:4;stroke-dasharray:none"
       id="path7894"
       cx="25.933784"
       cy="207.18184"
       r="3.6257191" />
    <path
       d="m 92.388281,230.42116 q -0.462287,0 -0.840009,-0.2255 -0.377722,-0.22551 -0.603228,-0.60323 -0.225506,-0.37772 -0.225506,-0.84001 0,-0.46229 0.225506,-0.84001 0.225506,-0.37772 0.603228,-0.60323 0.377722,-0.2255 0.840009,-0.2255 0.462287,0 0.84001,0.2255 0.377722,0.22551 0.603228,0.60323 0.225506,0.37772 0.225506,0.84001 0,0.46229 -0.225506,0.84001 -0.225506,0.37772 -0.603228,0.60323 -0.377723,0.2255 -0.84001,0.2255 z"
       style="font-size:11.5459px;line-height:1.25;font-family:'Cascadia Code PL';-inkscape-font-specification:'Cascadia Code PL';fill:#808080;stroke-width:0.288648"
       id="path1263" />
    <g
       id="g1767">
      <path
         d="m 137.78707,231.69681 v -4.5665 q 0,-0.62014 -0.46228,-0.62014 -0.58632,0 -0.58632,0.81182 l -0.40591,-0.85692 h 0.46229 q 0.0282,-0.34953 0.27624,-0.60323 0.2537,-0.25369 0.72726,-0.25369 0.62014,0 0.90202,0.33262 0.28188,0.33262 0.28188,1.07679 v 4.67925 z m -4.30716,0 v -5.97591 h 1.05988 l 0.1353,1.26284 v 4.71307 z m 2.24378,0 v -4.67925 q 0,-0.50739 -0.47356,-0.50739 -0.57504,0 -0.57504,0.81182 l -0.34953,-0.85692 h 0.38336 q 0.0676,-0.85692 1.02605,-0.85692 0.46792,0 0.73289,0.32135 0.27061,0.32134 0.27061,0.97531 v 4.792 z"
         style="font-size:11.5459px;line-height:1.25;font-family:'Cascadia Code PL';-inkscape-font-specification:'Cascadia Code PL';fill:#cccccc;stroke-width:0.288648"
         id="path1273" />
      <path
         d="m 143.51492,231.80956 q -1.5278,0 -2.36217,-0.80055 -0.82874,-0.80618 -0.82874,-2.31143 0,-1.46579 0.70471,-2.27761 0.7047,-0.81182 1.99009,-0.81182 1.21209,0 1.8717,0.73289 0.66524,0.7329 0.66524,2.13103 0,0.41155 -0.0338,0.76672 h -4.19441 v -0.91329 h 3.14581 q 0,-0.80619 -0.38336,-1.23465 -0.38336,-0.4341 -1.05988,-0.4341 -0.76108,0 -1.1839,0.51867 -0.41719,0.51866 -0.41719,1.46578 0,1.03733 0.57504,1.57854 0.58068,0.54122 1.64619,0.54122 0.37209,0 0.7329,-0.0395 0.36081,-0.0451 0.73289,-0.11839 l 0.14658,1.04861 q -0.52994,0.10147 -0.96967,0.12966 -0.43974,0.0282 -0.778,0.0282 z"
         style="font-size:11.5459px;line-height:1.25;font-family:'Cascadia Code PL';-inkscape-font-specification:'Cascadia Code PL';fill:#cccccc;stroke-width:0.288648"
         id="path1275" />
      <path
         d="m 149.29914,231.80956 q -0.67651,0 -1.16135,-0.0395 -0.4792,-0.0395 -0.87947,-0.12967 l 0.1353,-1.08243 q 0.59195,0.0902 1.04296,0.13531 0.45665,0.0451 0.86256,0.0451 0.90767,0 1.31358,-0.17477 0.41154,-0.1804 0.41154,-0.5694 0,-0.27061 -0.14657,-0.40027 -0.14095,-0.13531 -0.43974,-0.2086 l -1.37559,-0.34953 q -0.88511,-0.22551 -1.30229,-0.55813 -0.41155,-0.33262 -0.41155,-1.00914 0,-0.98095 0.74981,-1.42068 0.75544,-0.43974 2.42982,-0.43974 0.4341,0 0.80618,0.0282 0.37773,0.0226 0.77236,0.0846 l -0.12403,1.03733 q -0.45665,-0.0451 -0.80618,-0.062 -0.34953,-0.0169 -0.68215,-0.0169 -1.00351,0 -1.45452,0.17477 -0.45101,0.16913 -0.45101,0.55813 0,0.25933 0.18604,0.37772 0.18605,0.11275 0.56941,0.20859 l 1.10497,0.27061 q 0.94149,0.2255 1.37559,0.60323 0.43974,0.37772 0.43974,1.09934 0,0.96404 -0.70471,1.40377 -0.70471,0.4341 -2.2607,0.4341 z"
         style="font-size:11.5459px;line-height:1.25;font-family:'Cascadia Code PL';-inkscape-font-specification:'Cascadia Code PL';fill:#cccccc;stroke-width:0.288648"
         id="path1277" />
      <path
         d="m 157.76689,231.69681 v -3.88998 q 0,-0.5694 -0.28188,-0.87383 -0.28189,-0.31007 -0.78927,-0.31007 -1.40942,0 -1.40942,1.71384 l -0.34953,-1.53344 h 0.46229 q 0.0507,-0.60323 0.43973,-0.89639 0.389,-0.29879 1.13881,-0.29879 0.94712,0 1.46579,0.57504 0.51866,0.57504 0.51866,1.62364 v 3.88998 z m -3.67575,0 v -8.45647 h 1.19518 v 8.45647 z"
         style="font-size:11.5459px;line-height:1.25;font-family:'Cascadia Code PL';-inkscape-font-specification:'Cascadia Code PL';fill:#cccccc;stroke-width:0.288648"
         id="path1279" />
    </g>
    <g
       id="g1756">
      <path
         d="m 81.058398,211.81802 c -2.684076,0.0269 -5.584159,-0.69107 -7.41907,-2.77707 -1.935745,-2.17766 -2.298184,-5.28472 -2.019169,-8.07928 0.225159,-2.50013 1.439365,-5.02246 3.648119,-6.33997 2.214964,-1.33325 4.951862,-1.52122 7.455552,-1.11956 2.051615,0.36806 4.124701,1.52743 4.978688,3.51379 -0.913917,0.68964 -1.827834,1.37929 -2.741751,2.06893 -1.044727,-1.80962 -3.205277,-2.83617 -5.268859,-2.53617 -1.818427,0.1132 -3.516975,1.32808 -4.11261,3.06582 -0.62418,1.83301 -0.605577,3.90831 0.07451,5.72307 0.678238,1.81367 2.49913,2.96484 4.373279,3.18467 2.114762,0.2462 4.254196,-0.009 6.346607,-0.33747 0.134564,1.04288 0.269129,2.08575 0.403693,3.12863 -1.874851,0.41817 -3.804938,0.48967 -5.718989,0.50461 z"
         id="path1216"
         style="font-size:34.4485px;line-height:1.25;font-family:'Cascadia Code PL';-inkscape-font-specification:'Cascadia Code PL';stroke-width:0.861214;fill:#ffffff" />
      <path
         d="m 95.559343,193.62012 c 0.0086,3.99934 -0.01729,7.99945 0.01314,11.99831 0.01989,1.2773 0.844294,2.57033 2.141988,2.84898 1.602631,0.35949 3.600689,-0.0205 4.497489,-1.52984 0.5996,-0.98159 0.74356,-2.16318 0.74842,-3.2924 0.34763,1.52506 0.69525,3.05013 1.04288,4.57519 -0.45976,0 -0.91953,0 -1.37929,0 -0.0551,1.34287 -0.84323,2.67617 -2.14252,3.14459 -1.569907,0.57121 -3.3532,0.56267 -4.935579,0.0444 -1.937315,-0.64709 -3.177485,-2.56875 -3.430077,-4.53495 -0.211764,-1.57913 -0.08996,-3.17696 -0.122409,-4.76548 0,-2.82959 0,-5.65919 0,-8.48879 1.188652,0 2.377305,0 3.565957,0 z m 10.966997,0 c 0,5.94326 0,11.88653 0,17.82979 -1.07652,0 -2.15303,0 -3.22955,0 -0.10452,-1.34933 -0.27305,-2.69581 -0.33641,-4.04698 0,-4.59427 0,-9.18854 0,-13.78281 1.18865,0 2.37731,0 3.56596,0 z"
         id="path1220-8"
         style="font-size:34.4485px;line-height:1.25;font-family:'Cascadia Code PL';-inkscape-font-specification:'Cascadia Code PL';stroke-width:0.861214;fill:#ffffff" />
      <path
         d="m 133.5049,196.83956 c 0,-1.05409 0,-2.10818 0,-3.16227 3.11741,0 6.23482,0 9.35223,0 0,1.05409 0,2.10818 0,3.16227 -3.11741,0 -6.23482,0 -9.35223,0 z"
         id="path1702"
         style="font-size:34.4485px;line-height:1.25;font-family:'Cascadia Code PL';-inkscape-font-specification:'Cascadia Code PL';stroke-width:0.861214;fill:#ffffff" />
      <path
         id="path1700"
         style="font-size:34.4485px;line-height:1.25;font-family:'Cascadia Code PL';-inkscape-font-specification:'Cascadia Code PL';stroke-width:0.861213;fill:#ffffff"
         d="m 136.67985,200.00189 c 0,1.04283 0,2.08566 0,3.12849 0.8704,0 1.74081,0 2.61121,0 0,1.74081 0,3.48161 0,5.22242 -2.26515,0 -4.5303,0 -6.79545,0 0,1.043 0,2.08601 0,3.12901 5.28167,0 10.56335,0 15.84502,0 0,-1.043 0,-2.08601 0,-3.12901 -1.82779,0 -3.65559,0 -5.48338,0 0,-2.78363 0,-5.56727 0,-8.35091 -2.05914,0 -4.11827,0 -6.1774,0 z"
         sodipodi:nodetypes="ccccccccccc" />
      <use
         x="0"
         y="0"
         xlink:href="#path1216"
         id="use2929"
         transform="translate(80.768112)"
         width="100%"
         height="100%"
         style="fill:#ffffff" />
      <use
         x="0"
         y="0"
         xlink:href="#path1220-8"
         id="use3093"
         transform="rotate(180,109.40821,202.70797)"
         width="100%"
         height="100%"
         style="fill:#ffffff" />
      <use
         x="0"
         y="0"
         xlink:href="#path1220-8"
         id="use3175"
         transform="translate(80.627731)"
         width="100%"
         height="100%"
         style="fill:#ffffff" />
    </g>
    <g
       id="g1772">
      <path
         d="m 100.28118,234.29013 v -8.56923 h 1.08243 l 0.11275,1.26284 v 7.30639 z m 2.89212,-2.48057 q -0.6878,0 -1.11062,-0.31571 -0.41719,-0.31571 -0.47356,-0.87947 h -0.51867 l 0.40591,-1.70257 q 0,0.92457 0.36081,1.40377 0.36645,0.4792 1.07116,0.4792 0.72162,0 1.0937,-0.51302 0.37208,-0.51303 0.37208,-1.51653 0,-1.05988 -0.37208,-1.60109 -0.37208,-0.54121 -1.0937,-0.54121 -0.70471,0 -1.07116,0.4792 -0.36081,0.4792 -0.36081,1.40377 l -0.40591,-1.70257 h 0.46229 q 0.0789,-0.56376 0.50739,-0.87947 0.4341,-0.31571 1.13317,-0.31571 1.17826,0 1.78149,0.80055 0.60323,0.80054 0.60323,2.35653 0,1.49962 -0.60323,2.27197 -0.60323,0.77236 -1.78149,0.77236 z"
         style="font-size:11.5459px;line-height:1.25;font-family:'Cascadia Code PL';-inkscape-font-specification:'Cascadia Code PL';fill:#cccccc;stroke-width:0.288648"
         id="path1265" />
      <path
         d="m 106.95616,231.69681 v -1.28539 q 1.85478,-1.02605 2.76808,-2.13103 0.91894,-1.11061 0.91894,-2.28888 0,-0.68779 -0.33826,-1.03169 -0.33826,-0.3439 -1.02605,-0.3439 -0.45665,0 -0.95277,0.26497 -0.49611,0.26497 -0.85128,0.70471 l -0.778,-0.77236 q 0.389,-0.55813 1.10498,-0.89638 0.71598,-0.33826 1.49962,-0.33826 1.26847,0 1.89425,0.60322 0.63141,0.5976 0.63141,1.80969 0,1.21209 -0.77235,2.32835 -0.76672,1.11061 -2.33963,2.13667 v 1.24028 z m 0.33825,0 v -1.07116 h 4.87093 v 1.07116 z"
         style="font-size:11.5459px;line-height:1.25;font-family:'Cascadia Code PL';-inkscape-font-specification:'Cascadia Code PL';fill:#cccccc;stroke-width:0.288648"
         id="path1267" />
      <use
         x="0"
         y="0"
         xlink:href="#path1265"
         id="use3275"
         transform="translate(13.517253)"
         width="100%"
         height="100%"
         style="fill:#cccccc" />
    </g>
    <g
       id="g1782">
      <path
         d="m 32.61481,231.32472 -0.823096,-0.68779 3.980178,-4.52139 0.823097,0.66524 z m -0.823096,0.37209 v -1.05988 h 4.916028 v 1.05988 z m 0,-4.91603 v -1.05988 h 4.803275 v 1.05988 z"
         style="font-size:11.5459px;line-height:1.25;font-family:'Cascadia Code PL';-inkscape-font-specification:'Cascadia Code PL';fill:#cccccc;stroke-width:0.288648"
         id="path1247" />
      <path
         d="m 41.533567,231.80956 q -1.527802,0 -2.362174,-0.80055 -0.828734,-0.80618 -0.828734,-2.31143 0,-1.46579 0.704706,-2.27761 0.704706,-0.81182 1.990089,-0.81182 1.212094,0 1.871699,0.73289 0.665242,0.7329 0.665242,2.13103 0,0.41155 -0.03383,0.76672 H 39.34616 v -0.91329 h 3.145807 q 0,-0.80619 -0.38336,-1.23465 -0.38336,-0.4341 -1.059877,-0.4341 -0.761083,0 -1.183906,0.51867 -0.417186,0.51866 -0.417186,1.46578 0,1.03733 0.57504,1.57854 0.580677,0.54122 1.646193,0.54122 0.372084,0 0.732894,-0.0395 0.360809,-0.0451 0.732894,-0.11839 l 0.146579,1.04861 q -0.529939,0.10147 -0.969676,0.12966 -0.439736,0.0282 -0.777995,0.0282 z"
         style="font-size:11.5459px;line-height:1.25;font-family:'Cascadia Code PL';-inkscape-font-specification:'Cascadia Code PL';fill:#cccccc;stroke-width:0.288648"
         id="path1249" />
      <path
         d="m 47.374169,229.12604 -0.349534,-1.8717 h 0.462287 q 0.101477,-1.64619 1.646193,-1.64619 0.924574,0 1.34176,0.52994 0.417185,0.52994 0.417185,1.71384 h -1.183905 q 0,-0.65396 -0.197318,-0.94148 -0.19168,-0.28752 -0.625779,-0.28752 -0.761082,0 -1.138804,0.65396 -0.372085,0.64833 -0.372085,1.84915 z m -2.525666,2.57077 v -1.0486 h 3.991454 v 1.0486 z m 1.330485,0 v -5.97591 h 0.969675 l 0.225506,1.71385 v 4.26206 z m -1.104979,-4.92731 v -1.0486 h 1.995727 l 0.112753,1.0486 z"
         style="font-size:11.5459px;line-height:1.25;font-family:'Cascadia Code PL';-inkscape-font-specification:'Cascadia Code PL';fill:#cccccc;stroke-width:0.288648"
         id="path1251" />
      <path
         d="m 54.545256,231.80956 q -1.240282,0 -1.928075,-0.81182 -0.687793,-0.81182 -0.687793,-2.28888 0,-1.48271 0.687793,-2.28889 0.687793,-0.81182 1.928075,-0.81182 1.24592,0 1.928075,0.81182 0.687793,0.80618 0.687793,2.28889 0,1.47706 -0.687793,2.28888 -0.682155,0.81182 -1.928075,0.81182 z m 0,-1.07115 q 0.659605,0 1.014777,-0.52994 0.360809,-0.52994 0.360809,-1.49961 0,-0.97532 -0.360809,-1.49962 -0.355172,-0.52994 -1.014777,-0.52994 -0.659604,0 -1.020414,0.52994 -0.355172,0.5243 -0.355172,1.49962 0,0.96967 0.355172,1.49961 0.36081,0.52994 1.020414,0.52994 z"
         style="font-size:11.5459px;line-height:1.25;font-family:'Cascadia Code PL';-inkscape-font-specification:'Cascadia Code PL';fill:#cccccc;stroke-width:0.288648"
         id="path1253" />
      <path
         d="m 62.9183,231.80956 q -1.527802,0 -2.362174,-0.80055 -0.828734,-0.80618 -0.828734,-2.31143 0,-1.46579 0.783633,-2.27761 0.789271,-0.81182 2.249421,-0.81182 0.873835,0 1.493977,0.32698 0.625778,0.32135 0.890748,0.9133 l -0.918937,0.69343 q -0.253694,-0.41155 -0.648329,-0.63705 -0.394635,-0.22551 -0.86256,-0.22551 -0.845647,0 -1.313572,0.51303 -0.467924,0.50739 -0.467924,1.44887 0,1.02042 0.546851,1.56163 0.55249,0.53558 1.572904,0.53558 0.417186,0 0.834372,-0.0395 0.417185,-0.0395 0.811821,-0.10711 l 0.135303,1.0486 q -0.462287,0.10148 -0.9584,0.1353 -0.490475,0.0338 -0.9584,0.0338 z"
         style="font-size:11.5459px;line-height:1.25;font-family:'Cascadia Code PL';-inkscape-font-specification:'Cascadia Code PL';fill:#cccccc;stroke-width:0.288648"
         id="path1255" />
      <path
         d="m 81.522535,231.69681 v -5.46852 q 0,-3.10071 2.830098,-3.10071 0.642692,0 1.240283,0.11276 l -0.124029,1.03732 q -0.355171,-0.0451 -0.625778,-0.062 -0.270607,-0.0169 -0.524302,-0.0169 -1.601091,0 -1.601091,1.97317 v 5.5249 z m -1.882974,-3.6081 v -1.0486 h 5.524893 v 1.0486 z"
         style="font-size:11.5459px;line-height:1.25;font-family:'Cascadia Code PL';-inkscape-font-specification:'Cascadia Code PL';fill:#cccccc;stroke-width:0.288648"
         id="path1261" />
      <use
         x="0"
         y="0"
         xlink:href="#path1253"
         id="use3357"
         transform="translate(14.578604)"
         width="100%"
         height="100%"
         style="fill:#cccccc" />
      <path
         d="m 77.112304,231.69698 c -0.0029,-1.33981 0.0058,-2.67988 -0.0044,-4.01953 -0.0067,-0.42791 -0.282845,-0.86108 -0.717583,-0.95443 -0.536894,-0.12043 -1.206259,0.007 -1.506694,0.51251 -0.200871,0.32884 -0.249098,0.72468 -0.250726,1.10298 -0.116459,-0.51091 -0.232915,-1.02182 -0.349373,-1.53273 0.154023,0 0.308049,0 0.462073,0 0.01846,-0.44987 0.282488,-0.89653 0.71776,-1.05346 0.525932,-0.19136 1.123349,-0.1885 1.653458,-0.0149 0.649016,0.21678 1.064482,0.86055 1.149103,1.51924 0.07094,0.52902 0.03014,1.06431 0.04101,1.59647 0,0.94794 0,1.89588 0,2.84381 -0.398208,0 -0.796416,0 -1.194624,0 z m -3.67403,0 c 0,-1.99104 0,-3.98208 0,-5.97312 0.360643,0 0.721282,0 1.081925,0 0.03502,0.45203 0.09147,0.90312 0.1127,1.35577 0,1.53911 0,3.07823 0,4.61735 -0.398207,0 -0.796418,0 -1.194625,0 z"
         id="use3521"
         style="font-size:34.4485px;line-height:1.25;font-family:'Cascadia Code PL';-inkscape-font-specification:'Cascadia Code PL';fill:#cccccc;fill-opacity:1;stroke-width:0.288513" />
    </g>
    <g
       id="g1761">
      <path
         d="m 172.72299,231.69681 -2.13667,-5.97591 h 1.27411 l 1.60673,4.96113 h 0.10148 l 1.60673,-4.96113 h 1.27411 l -2.13667,5.97591 z"
         style="font-size:11.5459px;line-height:1.25;font-family:'Cascadia Code PL';-inkscape-font-specification:'Cascadia Code PL';fill:#cccccc;stroke-width:0.288648"
         id="path1283" />
      <use
         x="0"
         y="0"
         xlink:href="#path1265"
         id="use5208"
         transform="translate(77.56644)"
         width="100%"
         height="100%"
         style="fill:#cccccc" />
      <use
         x="0"
         y="0"
         xlink:href="#use3521"
         id="use5290"
         transform="translate(111.17464)"
         width="100%"
         height="100%"
         style="fill:#cccccc" />
    </g>
    <use
       x="0"
       y="0"
       xlink:href="#path1263"
       id="use5454"
       transform="translate(72.137448)"
       width="100%"
       height="100%"
       style="fill:#cccccc" />
  </g>
</svg>
