<?xml version="1.0" encoding="UTF-8" standalone="no"?>
<svg
   height="533.33331"
   width="533.3399"
   viewBox="-45.0006 -75 173.33778 299.99999"
   version="1.1"
   id="svg1210"
   sodipodi:docname="wice_icon.svg"
   inkscape:version="1.1.1 (c3084ef, 2021-09-22)"
   xmlns:inkscape="http://www.inkscape.org/namespaces/inkscape"
   xmlns:sodipodi="http://sodipodi.sourceforge.net/DTD/sodipodi-0.dtd"
   xmlns="http://www.w3.org/2000/svg"
   xmlns:svg="http://www.w3.org/2000/svg">
  <sodipodi:namedview
     id="namedview836"
     pagecolor="#ffffff"
     bordercolor="#666666"
     borderopacity="1.0"
     inkscape:pageshadow="2"
     inkscape:pageopacity="0.0"
     inkscape:pagecheckerboard="0"
     showgrid="false"
     inkscape:zoom="1.6331251"
     inkscape:cx="266.66666"
     inkscape:cy="266.66666"
     inkscape:window-width="1800"
     inkscape:window-height="1097"
     inkscape:window-x="0"
     inkscape:window-y="44"
     inkscape:window-maximized="1"
     inkscape:current-layer="svg1210" />
  <defs
     id="defs1214" />
  <path
     d="m 191.41161,70.56 c 0,0 6.94,-145.56 -153.040002,-145.56 -141.479998,0 -145.899998,139.63 -145.899998,139.63 0,0 -20.81,160.37 149.159998,160.37 C 204.65161,225 191.41161,70.56 191.41161,70.56 Z"
     id="path1821"
     style="fill:#00378a;fill-opacity:1" />
  <circle
     cx="42.745419"
     cy="193.79181"
     r="16.045702"
     id="circle824"
     style="fill:#ffffff;stroke-width:0.48054" />
  <path
     d="m -26.786756,-36.198827 c -29.539738,0 -53.485993,23.946255 -53.485993,53.485993 0,21.932313 13.20427,40.775717 32.093806,49.029468 0.04757,-24.218722 9.499309,-46.981408 26.629589,-64.1116877 9.72228,-9.7222796 21.25907762,-16.9697793 33.845374,-21.4296683 -9.7607228,-10.444531 -23.658893,-16.974105 -39.082776,-16.974105 z"
     id="path830"
     style="fill:#ffffff;stroke-width:0.48054" />
  <path
     d="m 112.27759,-36.198827 c -15.423879,0 -29.321087,6.529574 -39.082771,16.973624 12.586296,4.46085 24.124055,11.7083503 33.845371,21.4296688 17.13124,17.1312412 26.58298,39.8958492 26.62959,64.1160122 18.89098,-8.252789 32.09381,-27.100038 32.09381,-49.033312 0,-29.539738 -23.94674,-53.485993 -53.486,-53.485993 z"
     id="path836"
     style="fill:#ffffff;stroke-width:0.48054" />
  <path
     d="m 133.6717,126.93384 v -16.04571 h -30.60942 c 21.62285,-29.305711 19.16729,-70.801276 -7.368111,-97.33668 -29.242284,-29.242764 -76.653774,-29.242764 -105.896538,0 -26.535884,26.535404 -28.990961,68.030969 -7.368596,97.33668 h -30.6099 v 16.04571 h 45.463863 l 9.5651432,9.56514 -30.0260442,6.67229 3.48103,15.66368 39.993399,-8.88711 13.135553,13.13556 c 2.948592,-0.89621 6.074022,-1.383 9.311899,-1.38348 3.239798,4.8e-4 6.365709,0.48727 9.316223,1.38444 l 13.136034,-13.13604 39.992435,8.88711 3.48103,-15.66368 -30.025561,-6.67229 9.565143,-9.56514 H 133.6717 Z m -109.646667,-26.743 h -9.61e-4 c -5.898144,0 -10.696333,-4.79867 -10.696333,-10.697295 0.0019,-5.899586 4.801072,-10.697295 10.697294,-10.697295 5.898626,0 10.697295,4.79867 10.697295,10.697295 0,5.898625 -4.798669,10.697295 -10.697295,10.697295 z m 37.440772,0 h -9.61e-4 c -5.897664,0 -10.696334,-4.79867 -10.696334,-10.697295 0.0019,-5.899586 4.801073,-10.697295 10.697295,-10.697295 5.898625,0 10.697295,4.79867 10.697295,10.697295 -4.81e-4,5.898625 -4.79915,10.697295 -10.697295,10.697295 z"
     id="path842"
     style="fill:#ffffff;stroke-width:0.48054" />
</svg>
