<?xml version="1.0" encoding="UTF-8" standalone="no"?>
<svg
   height="533.33331"
   width="1891.5629"
   viewBox="-45.0006 -75 614.76613 299.99999"
   version="1.1"
   id="svg1210"
   sodipodi:docname="wice_logo.svg"
   inkscape:version="1.1.1 (c3084ef, 2021-09-22)"
   xmlns:inkscape="http://www.inkscape.org/namespaces/inkscape"
   xmlns:sodipodi="http://sodipodi.sourceforge.net/DTD/sodipodi-0.dtd"
   xmlns="http://www.w3.org/2000/svg"
   xmlns:svg="http://www.w3.org/2000/svg">
  <sodipodi:namedview
     id="namedview958"
     pagecolor="#ffffff"
     bordercolor="#666666"
     borderopacity="1.0"
     inkscape:pageshadow="2"
     inkscape:pageopacity="0.0"
     inkscape:pagecheckerboard="0"
     showgrid="false"
     inkscape:zoom="0.33083059"
     inkscape:cx="1603.5398"
     inkscape:cy="-352.14398"
     inkscape:window-width="1800"
     inkscape:window-height="1097"
     inkscape:window-x="0"
     inkscape:window-y="44"
     inkscape:window-maximized="1"
     inkscape:current-layer="svg1210"
     inkscape:snap-global="false" />
  <defs
     id="defs1214" />
  <path
     d="m 30.125573,70.56 c 0,0 6.94,-145.56 -153.040003,-145.56 -141.48,0 -145.9,139.63 -145.9,139.63 0,0 -20.81,160.37 149.16,160.37 C 43.365573,225 30.125573,70.56 30.125573,70.56 Z"
     id="path1821"
     style="fill:#00378a;fill-opacity:1" />
  <circle
     cx="-118.54062"
     cy="193.79181"
     r="16.045702"
     id="circle824"
     style="fill:#ffffff;stroke-width:0.48054" />
  <path
     d="m -188.0728,-36.198827 c -29.53973,0 -53.48599,23.946255 -53.48599,53.485993 0,21.932313 13.20427,40.775717 32.09381,49.029468 0.0476,-24.218722 9.49931,-46.981408 26.62959,-64.1116877 9.72228,-9.7222796 21.25907,-16.9697793 33.84537,-21.4296683 -9.76072,-10.444531 -23.65889,-16.974105 -39.08278,-16.974105 z"
     id="path830"
     style="fill:#ffffff;stroke-width:0.48054" />
  <path
     d="m -49.008446,-36.198827 c -15.423884,0 -29.321092,6.529574 -39.082776,16.973624 12.586296,4.46085 24.124055,11.7083503 33.845373,21.4296688 C -37.114608,19.335707 -27.662872,42.100315 -27.61626,66.320478 -8.7252822,58.067689 4.4775466,39.22044 4.4775466,17.287166 c 0,-29.539738 -23.9467356,-53.485993 -53.4859926,-53.485993 z"
     id="path836"
     style="fill:#ffffff;stroke-width:0.48054" />
  <path
     d="m -27.614337,126.93384 v -16.04571 h -30.60942 c 21.622846,-29.305711 19.167288,-70.801276 -7.368115,-97.33668 -29.242284,-29.242764 -76.653778,-29.242764 -105.896538,0 -26.53588,26.535404 -28.99096,68.030969 -7.3686,97.33668 h -30.6099 v 16.04571 h 45.46387 l 9.56514,9.56514 -30.02604,6.67229 3.48103,15.66368 39.99339,-8.88711 13.13556,13.13556 c 2.94859,-0.89621 6.07402,-1.383 9.3119,-1.38348 3.2398,4.8e-4 6.36571,0.48727 9.31622,1.38444 l 13.136034,-13.13604 39.992438,8.88711 3.481029,-15.66368 -30.025563,-6.67229 9.565143,-9.56514 h 45.462422 z m -109.646673,-26.743 h -9.6e-4 c -5.89814,0 -10.69633,-4.79867 -10.69633,-10.697295 0.002,-5.899586 4.80107,-10.697295 10.69729,-10.697295 5.89863,0 10.6973,4.79867 10.6973,10.697295 0,5.898625 -4.79867,10.697295 -10.6973,10.697295 z m 37.440774,0 h -9.61e-4 c -5.897663,0 -10.696333,-4.79867 -10.696333,-10.697295 0.002,-5.899586 4.80107,-10.697295 10.697294,-10.697295 5.898625,0 10.697295,4.79867 10.697295,10.697295 -4.81e-4,5.898625 -4.79915,10.697295 -10.697295,10.697295 z"
     id="path842"
     style="fill:#ffffff;stroke-width:0.48054" />
  <path
     d="m 388.38499,107.92154 c 3.24709,0 5.47947,-0.30442 6.69714,-0.91325 1.21766,-0.81177 1.82649,-2.02943 1.82649,-3.65298 V -10.495974 c 0,-1.623548 -0.60883,-2.739737 -1.82649,-3.348567 -1.21767,-0.811774 -3.45005,-1.217661 -6.69714,-1.217661 v -5.479473 h 46.27111 v 5.479473 c -5.68241,0 -8.52362,1.522076 -8.52362,4.566228 V 103.35531 c 0,3.04415 2.84121,4.56623 8.52362,4.56623 v 5.47947 h -46.27111 z"
     style="font-size:356.695px;line-height:1.25;font-family:Copperplate;-inkscape-font-specification:'Copperplate, Normal';fill:#00378a;fill-opacity:1;stroke-width:6.34196"
     id="path12414"
     sodipodi:nodetypes="ccsscccccsscccc" />
  <path
     d="m 593.25166,16.901402 q 0,-0.608831 -0.30442,-1.217661 0,-0.608834 0,-1.522079 0,-1.522076 -3.04415,-3.957398 -3.04416,-2.739737 -8.82804,-5.175058 -5.47947,-2.435322 -13.08986,-3.957398 -7.61037,-1.826491 -16.74283,-1.826491 -10.95895,0 -20.0914,3.044152 -8.82805,2.739737 -15.52518,8.523625 -6.69713,5.783888 -10.35012,14.307514 -3.65298,8.523625 -3.65298,19.482572 0,10.958947 3.95739,19.786991 4.26182,8.523621 10.95896,14.916341 6.69713,6.0883 15.22076,9.43687 8.52362,3.04416 17.35166,3.04416 8.21921,0 16.74284,-2.13091 8.52363,-2.13091 15.52517,-4.87065 7.00155,-3.04415 11.26337,-6.39271 4.56622,-3.34857 4.56622,-6.08831 v -2.435317 q 0,-1.826491 -0.30441,-3.044152 l 3.34856,-3.044152 22.52673,32.268011 -3.04416,1.52207 q -3.65298,-1.52207 -5.17505,-1.52207 -2.43532,0 -7.91479,2.73973 -5.47948,2.739738 -14.0031,6.392728 -8.21922,3.34856 -19.48258,5.78388 -10.95894,2.43532 -24.65763,2.43532 -14.0031,0 -27.70178,-3.95739 -13.69869,-3.9574 -24.35322,-12.481028 -10.65453,-8.82804 -17.35166,-21.61347 -6.69714,-13.089861 -6.69714,-30.137112 0,-17.047251 6.69714,-29.832688 6.69713,-12.785438 17.65608,-21.309063 10.95894,-8.828042 24.96204,-13.089854 14.30752,-4.261813 29.22386,-4.261813 11.56778,0 21.00465,2.130907 9.74129,2.130906 17.04725,4.870643 7.30597,2.739736 12.17661,4.870643 4.87065,2.130906 7.00155,2.130906 1.52208,0 2.43532,-0.913246 1.21766,-0.913245 2.43532,-1.522076 l 3.65298,2.130907 -20.0914,28.919447 z"
     style="font-size:356.695px;line-height:1.25;font-family:Copperplate;-inkscape-font-specification:'Copperplate, Normal';fill:#00378a;fill-opacity:1;stroke-width:6.34196"
     id="path12416" />
  <path
     d="m 774.57372,4.420375 q 0,-5.783888 -9.43688,-5.783888 h -74.2773 v 30.441522 h 46.87994 q 5.17506,0 7.61038,-0.60883 2.43532,-0.91325 2.43532,-4.261813 h 5.47947 v 32.268011 h -6.0883 q 0.91324,-3.348572 -2.43532,-3.957402 -3.34857,-0.913242 -9.43688,-0.913242 h -44.44461 v 35.920989 h 77.93029 q 3.65298,0 6.0883,-1.52208 2.43532,-1.82649 2.43532,-4.56622 h 5.47947 v 31.963588 h -5.47947 q 0,-2.73973 -2.43532,-3.04415 -2.43532,-0.30441 -6.0883,-0.30441 H 657.06945 v -5.47948 q 1.52208,0 3.04415,-0.91325 1.52208,-1.21766 1.52208,-3.65298 V -13.844537 q 0,-2.435321 -1.52208,-3.348567 -1.52207,-1.217661 -3.04415,-1.217661 v -5.479473 h 108.06739 q 9.43688,0 9.43688,-5.479474 h 5.47947 V 4.420375 Z"
     style="font-size:356.695px;line-height:1.25;font-family:Copperplate;-inkscape-font-specification:'Copperplate, Normal';fill:#00378a;fill-opacity:1;stroke-width:6.34196"
     id="path12418" />
  <g
     aria-label="m"
     transform="scale(1.0854496,-0.92127723)"
     id="text1841"
     style="font-size:259.357px;line-height:1.25;font-family:'Hiragino Mincho ProN';-inkscape-font-specification:'Hiragino Mincho ProN';fill:#00378a;stroke-width:6.48393">
    <path
       id="path18217"
       style="font-family:sans-serif;-inkscape-font-specification:sans-serif"
       d="m 97.826172,-123.0918 c 0,2.36198 0,4.72396 0,7.08594 2.188568,0.003 4.546738,-0.17187 6.541018,0.88672 0.57449,0.66155 0.81755,1.58146 0.71484,2.45117 0,45.361329 0,90.722658 0,136.083986 10.75846,0 21.51693,0 32.27539,0 0,-2.6875 0,-5.375 0,-8.0625 -1.6578,-0.244917 -3.49035,-0.275178 -4.91158,-1.26096 -1.23736,-1.037914 -1.4121,-2.747826 -1.30717,-4.2546654 0,-30.8684896 0,-61.7369796 0,-92.6054686 6.26922,-4.753021 12.91488,-9.009099 19.96998,-12.350054 6.25555,-2.913307 13.17875,-4.485194 20.09339,-4.147372 1.21242,0.02829 2.56071,0.121713 3.7628,0.231801 3.12706,0.327542 6.48362,0.934416 9.39454,2.410156 1.24919,0.609268 2.63216,1.476443 3.74711,2.451324 3.38543,2.835475 5.32607,7.004388 6.29165,11.24034 0.89284,3.648475 1.15866,7.477631 1.49248,11.271227 0.67248,8.209964 0.46543,16.452035 0.49805,24.714062 0,23.454037 0,46.90807317 0,70.36211 10.75847,0 21.51693,0 32.27539,0 0,-2.630209 0,-5.260417 0,-7.890625 -1.71493,-0.606287 -3.58726,-0.966452 -5.07783,-2.055338 -0.99683,-0.74715 -1.26484,-2.043339 -1.13896,-3.220444 -0.01,-26.705032 0.0197,-53.410247 -0.0148,-80.115166 -0.0641,-4.117013 -0.326,-8.232304 -0.80356,-12.321943 6.87014,-5.253352 14.26464,-9.93903 22.12573,-13.479209 5.90578,-2.606774 12.39582,-3.91387 18.854,-3.595532 1.40452,0.04096 2.93711,0.143546 4.35858,0.306201 2.57304,0.301292 5.39217,0.844059 7.86234,1.936785 4.66941,2.030321 8.291,6.147614 9.911,10.953888 0.84329,2.341108 1.35346,4.763912 1.706,7.16485 0.75284,5.868947 1.11961,11.784035 1.22113,17.663908 0.0634,12.496488 0.01,24.993734 0.0276,37.490515 0,15.7207034 0,31.4414065 0,47.16211 10.75912,0 21.51823,0 32.27735,0 0,-2.659506 0,-5.319011 0,-7.978516 -1.54011,-0.333916 -3.10589,-0.601986 -4.56446,-1.351562 -1.29712,-0.744148 -1.82736,-2.307413 -1.65429,-3.736329 -0.009,-27.188902 0.0185,-54.377982 -0.0139,-81.566774 -0.17072,-10.381739 -1.72096,-20.968195 -6.33188,-30.371885 -3.22727,-6.5297 -7.96736,-12.47816 -14.2532,-16.28356 -7.43829,-4.58316 -16.30167,-6.22337 -24.93581,-6.3343 -9.58986,-0.17945 -19.22868,1.81096 -27.88839,5.95897 -8.93563,4.19266 -16.98468,10.0308 -24.57296,16.29091 -3.25004,-6.5748 -8.42637,-12.15854 -14.72017,-15.92049 -7.38899,-4.55726 -16.18082,-6.30662 -24.77734,-6.33377 -9.33684,-0.10436 -18.68208,2.1282 -26.95092,6.46939 -6.46647,3.29714 -12.5071,7.38459 -18.17071,11.91378 0,-6.12956 0,-12.25912 0,-18.38868 -11.10416,0 -22.20833,0 -33.312498,0 0,0.375 0,0.75 0,1.125 z" />
  </g>
  <g
     aria-label="ZeroConf, P2P VPN Tunnel"
     id="text5600"
     style="font-size:41.5814px;line-height:1.25;stroke-width:1.03954"
     transform="translate(0,-28.806608)">
    <path
       d="m 120.14878,178.83617 h -13.57231 q -1.49695,0 -1.49695,1.39715 h -0.89817 v -6.88595 h 0.89817 q 0,1.19756 1.49695,1.19756 h 23.00307 v 1.39715 l -15.86763,20.25867 h 13.57231 q 1.39715,0 1.39715,-1.09776 h 0.89817 v 6.63646 h -0.89817 q 0,-0.94807 -1.39715,-0.94807 h -23.25256 v -1.39715 z"
       style="font-size:49.8982px;font-family:Copperplate;-inkscape-font-specification:'Copperplate, Normal'"
       id="path1029" />
    <path
       d="m 155.44318,183.47671 q 0,-0.94807 -1.54685,-0.94807 h -12.17516 v 4.98982 h 7.68433 q 0.84827,0 1.24745,-0.0998 0.39919,-0.14969 0.39919,-0.69857 h 0.89816 v 5.28921 h -0.99796 q 0.14969,-0.54888 -0.39919,-0.64868 -0.54888,-0.14969 -1.54684,-0.14969 h -7.28514 v 5.88798 h 12.77394 q 0.59878,0 0.99797,-0.24949 0.39918,-0.29939 0.39918,-0.74847 h 0.89817 v 5.23931 h -0.89817 q 0,-0.44908 -0.39918,-0.49898 -0.39919,-0.0499 -0.99797,-0.0499 h -18.31264 v -0.89817 q 0.24949,0 0.49898,-0.14969 0.2495,-0.19959 0.2495,-0.59878 v -18.66193 q 0,-0.39918 -0.2495,-0.54888 -0.24949,-0.19959 -0.49898,-0.19959 v -0.89817 h 17.71386 q 1.54685,0 1.54685,-0.89816 h 0.89817 v 5.5387 z"
       style="font-size:49.8982px;font-family:Copperplate;-inkscape-font-specification:'Copperplate, Normal'"
       id="path1031" />
    <path
       d="m 177.43035,188.31683 q 4.89003,0 4.89003,-3.09369 0,-1.24745 -1.19756,-1.94603 -1.14766,-0.74847 -3.69247,-0.74847 h -7.88391 v 5.78819 z m 0.0998,-9.48066 q 4.44094,0 6.93585,1.49695 2.49491,1.44705 2.49491,4.98982 0,1.34725 -0.49898,2.39511 -0.49898,1.04787 -1.34725,1.84624 -0.79837,0.74847 -1.79634,1.24745 -0.99796,0.44909 -2.04582,0.69858 l 4.89002,7.13544 q 0.39919,0.54888 0.84827,0.84827 0.49898,0.24949 1.04786,0.39918 v 0.89817 h -7.63442 v -0.89817 q 0.64867,0 0.64867,-0.44908 0,-0.49898 -0.74847,-1.54684 l -3.94196,-5.88799 h -6.93585 v 7.13544 q 0,0.39919 0.29939,0.59878 0.34929,0.14969 0.64868,0.14969 v 0.89817 h -6.63646 v -0.89817 q 0.89817,0 0.89817,-0.74847 v -18.66193 q 0,-0.74847 -0.89817,-0.74847 v -0.89817 z"
       style="font-size:49.8982px;font-family:Copperplate;-inkscape-font-specification:'Copperplate, Normal'"
       id="path1033" />
    <path
       d="m 205.58931,182.22925 q -1.59674,0 -3.14358,0.54888 -1.49695,0.49898 -2.69451,1.49695 -1.19755,0.94806 -1.94603,2.34521 -0.69857,1.39715 -0.69857,3.19349 0,1.79633 0.69857,3.19348 0.74848,1.39715 1.94603,2.39512 1.19756,0.94806 2.69451,1.49694 1.54684,0.49898 3.14358,0.49898 1.59675,0 3.09369,-0.49898 1.54685,-0.54888 2.7444,-1.49694 1.19756,-0.99797 1.89613,-2.39512 0.74848,-1.39715 0.74848,-3.19348 0,-1.79634 -0.74848,-3.19349 -0.69857,-1.39715 -1.89613,-2.34521 -1.19755,-0.99797 -2.7444,-1.49695 -1.49694,-0.54888 -3.09369,-0.54888 z m 0,-3.69247 q 2.7444,0 5.13952,0.69858 2.44501,0.69857 4.24134,2.09572 1.79634,1.39715 2.8442,3.54278 1.04786,2.09572 1.04786,4.93992 0,2.8442 -1.04786,4.98982 -1.04786,2.09572 -2.8442,3.49287 -1.79633,1.39715 -4.24134,2.04583 -2.39512,0.59878 -5.13952,0.59878 -2.7444,0 -5.18941,-0.59878 -2.39511,-0.64868 -4.19145,-2.04583 -1.79633,-1.39715 -2.8442,-3.49287 -1.04786,-2.14562 -1.04786,-4.98982 0,-2.8442 1.04786,-4.93992 1.04787,-2.14563 2.8442,-3.54278 1.79634,-1.39715 4.19145,-2.09572 2.44501,-0.69858 5.18941,-0.69858 z"
       style="font-size:49.8982px;font-family:Copperplate;-inkscape-font-specification:'Copperplate, Normal'"
       id="path1035" />
    <path
       d="m 252.85928,197.19871 q -0.14969,0 -0.29939,0 -0.0998,-0.0499 -0.24949,-0.0499 -0.29939,0 -1.44705,0.59878 -1.09776,0.59878 -2.84419,1.34725 -1.69654,0.74848 -3.89206,1.29736 -2.19552,0.54888 -4.59064,0.54888 -3.14358,0 -6.03768,-0.79837 -2.8941,-0.79838 -5.13952,-2.44502 -2.19552,-1.69654 -3.49287,-4.19145 -1.29735,-2.49491 -1.29735,-5.83809 0,-3.29328 1.29735,-5.78819 1.29735,-2.5448 3.49287,-4.24134 2.24542,-1.69654 5.13952,-2.54481 2.8941,-0.84827 6.03768,-0.84827 2.54481,0 4.59064,0.39918 2.09572,0.39919 3.64256,0.84827 1.54685,0.44909 2.44502,0.84827 0.89816,0.39919 1.09776,0.39919 0.24949,0 0.39918,-0.24949 0.1996,-0.24949 0.29939,-0.39919 l 0.74848,0.59878 -3.89206,6.03768 -0.49899,-0.34928 q 0,-0.1497 -0.0499,-0.29939 0,-0.1497 -0.0499,-0.34929 -0.0998,-0.54888 -0.99797,-1.09776 -0.89816,-0.59878 -2.24542,-1.04786 -1.29735,-0.44909 -2.7943,-0.74848 -1.44704,-0.29939 -2.6945,-0.29939 -2.09572,0 -4.04175,0.59878 -1.89613,0.59878 -3.34318,1.74644 -1.39715,1.14766 -2.24542,2.8442 -0.84827,1.64664 -0.84827,3.79226 0,2.14562 0.84827,3.84216 0.84827,1.64664 2.24542,2.7943 1.44705,1.14766 3.34318,1.74644 1.94603,0.59878 4.04175,0.59878 1.59674,0 3.34318,-0.34929 1.74644,-0.39919 3.19349,-0.94807 1.44704,-0.59878 2.39511,-1.29735 0.99796,-0.74847 0.99796,-1.39715 0,-0.34929 -0.19959,-0.59878 l 0.69858,-0.39918 3.29328,5.28921 z"
       style="font-size:49.8982px;font-family:Copperplate;-inkscape-font-specification:'Copperplate, Normal'"
       id="path1037" />
    <path
       d="m 272.15274,182.22925 q -1.59675,0 -3.14359,0.54888 -1.49695,0.49898 -2.6945,1.49695 -1.19756,0.94806 -1.94603,2.34521 -0.69858,1.39715 -0.69858,3.19349 0,1.79633 0.69858,3.19348 0.74847,1.39715 1.94603,2.39512 1.19755,0.94806 2.6945,1.49694 1.54684,0.49898 3.14359,0.49898 1.59674,0 3.09368,-0.49898 1.54685,-0.54888 2.74441,-1.49694 1.19755,-0.99797 1.89613,-2.39512 0.74847,-1.39715 0.74847,-3.19348 0,-1.79634 -0.74847,-3.19349 -0.69858,-1.39715 -1.89613,-2.34521 -1.19756,-0.99797 -2.74441,-1.49695 -1.49694,-0.54888 -3.09368,-0.54888 z m 0,-3.69247 q 2.7444,0 5.13951,0.69858 2.44501,0.69857 4.24135,2.09572 1.79633,1.39715 2.8442,3.54278 1.04786,2.09572 1.04786,4.93992 0,2.8442 -1.04786,4.98982 -1.04787,2.09572 -2.8442,3.49287 -1.79634,1.39715 -4.24135,2.04583 -2.39511,0.59878 -5.13951,0.59878 -2.74441,0 -5.18942,-0.59878 -2.39511,-0.64868 -4.19145,-2.04583 -1.79633,-1.39715 -2.84419,-3.49287 -1.04787,-2.14562 -1.04787,-4.98982 0,-2.8442 1.04787,-4.93992 1.04786,-2.14563 2.84419,-3.54278 1.79634,-1.39715 4.19145,-2.09572 2.44501,-0.69858 5.18942,-0.69858 z"
       style="font-size:49.8982px;font-family:Copperplate;-inkscape-font-specification:'Copperplate, Normal'"
       id="path1039" />
    <path
       d="m 291.4797,199.89321 q 0.89817,0 0.89817,-0.74847 v -18.66193 q 0,-0.74847 -0.89817,-0.74847 v -0.89817 h 7.33504 v 0.89817 q -0.34929,0.0499 -0.34929,0.24949 0,0.24949 1.09776,1.34725 l 11.97557,12.67415 v -13.52242 q 0,-0.74847 -0.99796,-0.74847 v -0.89817 h 6.08758 v 0.89817 q -0.89817,0 -0.89817,0.74847 v 18.66193 q 0,0.74847 0.89817,0.74847 v 0.89817 h -6.48677 v -0.89817 q 0.34929,0 0.34929,-0.24949 0,-0.19959 -0.49898,-0.69857 -0.44909,-0.49898 -1.04787,-1.14766 l -12.37475,-13.17313 v 14.52038 q 0,0.74847 1.04786,0.74847 v 0.89817 h -6.13748 z"
       style="font-size:49.8982px;font-family:Copperplate;-inkscape-font-specification:'Copperplate, Normal'"
       id="path1041" />
    <path
       d="m 345.41811,183.22722 q 0,-0.2495 -0.34929,-0.44909 -0.34929,-0.24949 -1.19756,-0.24949 h -13.52241 v 5.28921 h 8.78208 q 0.84827,0 1.04786,-0.1497 0.1996,-0.19959 0.2495,-0.59877 h 0.89816 v 5.23931 h -0.89816 q -0.0499,-0.39919 -0.2495,-0.59878 -0.19959,-0.19959 -1.04786,-0.19959 h -8.78208 v 7.63442 q 0,0.39919 0.34929,0.59878 0.34928,0.14969 0.79837,0.14969 v 0.89817 h -6.88595 v -0.89817 q 0.94806,0 0.94806,-0.74847 v -18.66193 q 0,-0.74847 -1.04786,-0.74847 v -0.89817 h 19.3605 q 0.84827,0 1.19756,-0.24949 0.34929,-0.24949 0.34929,-0.64867 h 0.89816 v 5.28921 z"
       style="font-size:49.8982px;font-family:Copperplate;-inkscape-font-specification:'Copperplate, Normal'"
       id="path1043" />
    <path
       d="m 351.13846,206.57957 q 0.74847,-0.19959 1.69654,-0.79837 0.94807,-0.54888 1.69654,-1.34725 0.79837,-0.74847 1.29735,-1.64664 0.49898,-0.89817 0.39919,-1.79634 -0.0998,-0.19959 -0.54888,-0.24949 -0.44909,-0.0499 -0.84827,-0.0499 -1.24746,0 -2.19552,-0.79838 -0.89817,-0.84827 -0.89817,-2.34521 0,-1.44705 0.99796,-2.49491 1.04787,-1.04786 2.34522,-1.04786 1.99593,0 2.99389,1.44704 1.04786,1.44705 1.04786,3.54278 0,1.59674 -0.69857,3.04379 -0.64868,1.49694 -1.74644,2.7444 -1.09776,1.24745 -2.54481,2.14562 -1.44704,0.89817 -2.99389,1.24746 z"
       style="font-size:49.8982px;font-family:Copperplate;-inkscape-font-specification:'Copperplate, Normal'"
       id="path1045" />
    <path
       d="m 400.90569,185.52253 q 1.64664,0 2.7943,-0.64867 1.19755,-0.64868 1.19755,-2.54481 0,-1.89613 -1.19755,-2.54481 -1.14766,-0.64868 -2.7943,-0.64868 h -10.62832 v 6.38697 z m -18.16295,15.26885 v -0.89817 q 1.84623,0 1.84623,-0.89816 v -22.65379 q 0,-0.89816 -1.84623,-0.89816 v -0.89817 h 17.56417 q 4.79022,0 7.53463,1.79633 2.7444,1.74644 2.7444,5.98779 0,4.24134 -2.7444,6.03768 -2.74441,1.74644 -7.53463,1.74644 h -10.02954 v 8.88188 q 0,0.89816 1.59674,0.89816 v 0.89817 z"
       style="font-size:49.8982px;font-family:Copperplate;-inkscape-font-specification:'Copperplate, Normal'"
       id="path1047" />
    <path
       d="m 439.62514,201.44006 h -0.59878 q 0,-0.54888 -0.49898,-0.59878 -0.44909,-0.0499 -0.99797,-0.0499 h -21.00714 q -0.54888,0 -0.89817,0.0499 -0.34929,0.0998 -0.34929,0.54888 h -0.59877 v -1.79633 q 0,-2.64461 1.29735,-4.54074 1.34725,-1.89613 3.34318,-3.34318 1.99593,-1.44705 4.29124,-2.54481 2.29532,-1.09776 4.29125,-2.14562 1.99593,-1.09776 3.29328,-2.24542 1.34725,-1.14766 1.34725,-2.6945 0,-1.04787 -0.49898,-1.69654 -0.44908,-0.69858 -1.19756,-1.09776 -0.74847,-0.44909 -1.64664,-0.59878 -0.89817,-0.1497 -1.74643,-0.1497 -0.84827,0 -2.09573,0.29939 -1.24745,0.29939 -2.39511,0.89817 -1.14766,0.59878 -1.99593,1.44705 -0.79837,0.79837 -0.79837,1.84623 0,0.24949 0.0998,0.64868 0.1497,0.39918 0.34929,0.54888 l -0.49898,0.34929 -5.13952,-5.48881 0.49899,-0.34928 q 0.19959,0.0998 0.39918,0.19959 0.1996,0.0998 0.44909,0.0998 0.29939,0 1.09776,-0.74848 0.79837,-0.74847 2.19552,-1.64664 1.39715,-0.89817 3.49287,-1.64664 2.09573,-0.74847 4.98982,-0.74847 1.89613,0 3.69247,0.44908 1.84623,0.44909 3.24338,1.44705 1.44705,0.94807 2.29532,2.49491 0.89817,1.49695 0.89817,3.69247 0,2.34521 -0.89817,3.89206 -0.89817,1.54684 -2.39511,2.6446 -1.44705,1.04786 -3.29329,1.79634 -1.84623,0.74847 -3.79226,1.49694 -1.89613,0.69858 -3.69247,1.49695 -1.74643,0.79837 -3.09368,2.04583 v 0.49898 h 16.4664 q 0.54888,0 0.99797,-0.1996 0.49898,-0.19959 0.49898,-1.19755 h 0.59878 z"
       style="font-size:49.8982px;font-family:Copperplate;-inkscape-font-specification:'Copperplate, Normal'"
       id="path1049" />
    <path
       d="m 464.74028,185.52253 q 1.64664,0 2.7943,-0.64867 1.19756,-0.64868 1.19756,-2.54481 0,-1.89613 -1.19756,-2.54481 -1.14766,-0.64868 -2.7943,-0.64868 h -10.62832 v 6.38697 z m -18.16294,15.26885 v -0.89817 q 1.84623,0 1.84623,-0.89816 v -22.65379 q 0,-0.89816 -1.84623,-0.89816 v -0.89817 h 17.56416 q 4.79023,0 7.53463,1.79633 2.7444,1.74644 2.7444,5.98779 0,4.24134 -2.7444,6.03768 -2.7444,1.74644 -7.53463,1.74644 h -10.02954 v 8.88188 q 0,0.89816 1.59675,0.89816 v 0.89817 z"
       style="font-size:49.8982px;font-family:Copperplate;-inkscape-font-specification:'Copperplate, Normal'"
       id="path1051" />
    <path
       d="m 521.94814,175.4431 q -0.99796,0 -1.44705,0.74847 -0.44908,0.69857 -0.64868,1.14766 l -8.83198,19.4104 q -0.44908,0.99796 -0.74847,1.59674 -0.29939,0.59878 -0.29939,0.84827 0,0.24949 0.0998,0.39919 0.14969,0.14969 0.34928,0.29938 v 0.89817 h -7.63442 v -0.89817 q 0.44908,-0.19959 0.44908,-0.69857 0,-0.24949 -0.39918,-0.99796 -0.34929,-0.79838 -0.89817,-1.94603 l -8.98168,-19.5102 q -0.24949,-0.54888 -0.69857,-0.79837 -0.44908,-0.24949 -1.29735,-0.49898 v -0.89817 h 8.93177 v 0.89817 q -0.34928,0 -0.69857,0.19959 -0.29939,0.14969 -0.29939,0.64868 0,0.54888 0.39919,1.39714 0.44908,0.84827 1.04786,2.09573 l 6.38697,13.722 6.23727,-13.52241 q 0.59878,-1.29735 1.09776,-2.29532 0.54888,-1.04786 0.54888,-1.44704 0,-0.79837 -1.39715,-0.79837 v -0.89817 h 8.73219 z"
       style="font-size:49.8982px;font-family:Copperplate;-inkscape-font-specification:'Copperplate, Normal'"
       id="path1053" />
    <path
       d="m 545.09932,185.52253 q 1.64664,0 2.7943,-0.64867 1.19756,-0.64868 1.19756,-2.54481 0,-1.89613 -1.19756,-2.54481 -1.14766,-0.64868 -2.7943,-0.64868 H 534.471 v 6.38697 z m -18.16295,15.26885 v -0.89817 q 1.84624,0 1.84624,-0.89816 v -22.65379 q 0,-0.89816 -1.84624,-0.89816 v -0.89817 h 17.56417 q 4.79023,0 7.53463,1.79633 2.7444,1.74644 2.7444,5.98779 0,4.24134 -2.7444,6.03768 -2.7444,1.74644 -7.53463,1.74644 H 534.471 v 8.88188 q 0,0.89816 1.59675,0.89816 v 0.89817 z"
       style="font-size:49.8982px;font-family:Copperplate;-inkscape-font-specification:'Copperplate, Normal'"
       id="path1055" />
    <path
       d="m 561.01529,199.89321 q 0.94807,0 0.94807,-0.89816 v -22.65379 q 0,-0.89816 -0.94807,-0.89816 v -0.89817 h 8.53259 v 0.89817 q -0.39918,0 -0.39918,0.49898 0,0.39918 0.99796,1.39715 l 14.32079,14.86966 v -15.86763 q 0,-0.89816 -1.29736,-0.89816 v -0.89817 h 7.53463 v 0.89817 q -0.94806,0 -0.94806,0.89816 v 22.65379 q 0,0.89816 0.94806,0.89816 v 0.89817 h -8.08351 v -0.89817 q 0.64868,0 0.64868,-0.44908 0,-0.34929 -0.79837,-1.14766 l -15.21895,-15.86763 v 16.56621 q 0,0.89816 1.14766,0.89816 v 0.89817 h -7.38494 z"
       style="font-size:49.8982px;font-family:Copperplate;-inkscape-font-specification:'Copperplate, Normal'"
       id="path1057" />
    <path
       d="m 628.52913,198.99505 q 0,0.89816 1.09776,0.89816 v 0.89817 h -7.68432 v -0.89817 q 0.34928,0 0.59878,-0.19959 0.29938,-0.24949 0.29938,-0.69857 v -19.85949 h -8.2332 q -0.44908,0 -0.89817,0.24949 -0.39918,0.24949 -0.39918,0.94807 h -0.89817 v -6.98575 h 0.89817 q 0,0.69858 0.39918,0.94807 0.44909,0.24949 0.89817,0.24949 h 22.1548 q 0.44909,0 0.84827,-0.24949 0.44909,-0.24949 0.44909,-0.94807 h 0.89816 v 6.98575 h -0.89816 q 0,-0.69858 -0.44909,-0.94807 -0.39918,-0.24949 -0.84827,-0.24949 h -8.2332 z"
       style="font-size:49.8982px;font-family:Copperplate;-inkscape-font-specification:'Copperplate, Normal'"
       id="path1059" />
    <path
       d="m 651.79804,179.73434 q -1.09776,0 -1.09776,0.74847 v 11.42669 q 0,2.39512 1.74644,3.84216 1.74643,1.44705 5.3391,1.44705 3.59268,0 5.33911,-1.44705 1.74644,-1.44704 1.74644,-3.84216 v -11.42669 q 0,-0.74847 -1.24746,-0.74847 v -0.89817 h 6.93585 v 0.89817 q -1.09776,0 -1.09776,0.74847 v 12.62425 q 0,1.54684 -0.69857,2.99389 -0.69858,1.39715 -2.14562,2.49491 -1.39715,1.09776 -3.64257,1.74644 -2.19552,0.59878 -5.18942,0.59878 -2.99389,0 -5.23931,-0.59878 -2.19552,-0.64868 -3.64257,-1.74644 -1.39714,-1.09776 -2.09572,-2.49491 -0.69857,-1.44705 -0.69857,-2.99389 v -12.62425 q 0,-0.39918 -0.29939,-0.54888 -0.29939,-0.19959 -1.14766,-0.19959 v -0.89817 h 7.13544 z"
       style="font-size:49.8982px;font-family:Copperplate;-inkscape-font-specification:'Copperplate, Normal'"
       id="path1061" />
    <path
       d="m 678.34233,199.89321 q 0.89817,0 0.89817,-0.74847 v -18.66193 q 0,-0.74847 -0.89817,-0.74847 v -0.89817 h 7.33504 v 0.89817 q -0.34929,0.0499 -0.34929,0.24949 0,0.24949 1.09776,1.34725 l 11.97557,12.67415 v -13.52242 q 0,-0.74847 -0.99797,-0.74847 v -0.89817 h 6.08758 v 0.89817 q -0.89816,0 -0.89816,0.74847 v 18.66193 q 0,0.74847 0.89816,0.74847 v 0.89817 h -6.48676 v -0.89817 q 0.34928,0 0.34928,-0.24949 0,-0.19959 -0.49898,-0.69857 -0.44908,-0.49898 -1.04786,-1.14766 l -12.37475,-13.17313 v 14.52038 q 0,0.74847 1.04786,0.74847 v 0.89817 h -6.13748 z"
       style="font-size:49.8982px;font-family:Copperplate;-inkscape-font-specification:'Copperplate, Normal'"
       id="path1063" />
    <path
       d="m 711.67277,199.89321 q 0.89817,0 0.89817,-0.74847 v -18.66193 q 0,-0.74847 -0.89817,-0.74847 v -0.89817 h 7.33504 v 0.89817 q -0.34929,0.0499 -0.34929,0.24949 0,0.24949 1.09776,1.34725 l 11.97557,12.67415 v -13.52242 q 0,-0.74847 -0.99796,-0.74847 v -0.89817 h 6.08758 v 0.89817 q -0.89817,0 -0.89817,0.74847 v 18.66193 q 0,0.74847 0.89817,0.74847 v 0.89817 h -6.48677 v -0.89817 q 0.34929,0 0.34929,-0.24949 0,-0.19959 -0.49898,-0.69857 -0.44909,-0.49898 -1.04787,-1.14766 l -12.37475,-13.17313 v 14.52038 q 0,0.74847 1.04786,0.74847 v 0.89817 h -6.13748 z"
       style="font-size:49.8982px;font-family:Copperplate;-inkscape-font-specification:'Copperplate, Normal'"
       id="path1065" />
    <path
       d="m 764.31382,183.47671 q 0,-0.94807 -1.54684,-0.94807 h -12.17516 v 4.98982 h 7.68432 q 0.84827,0 1.24745,-0.0998 0.39919,-0.14969 0.39919,-0.69857 h 0.89817 v 5.28921 h -0.99797 q 0.1497,-0.54888 -0.39918,-0.64868 -0.54888,-0.14969 -1.54685,-0.14969 h -7.28513 v 5.88798 h 12.77394 q 0.59877,0 0.99796,-0.24949 0.39919,-0.29939 0.39919,-0.74847 h 0.89816 v 5.23931 h -0.89816 q 0,-0.44908 -0.39919,-0.49898 -0.39919,-0.0499 -0.99796,-0.0499 h -18.31264 v -0.89817 q 0.24949,0 0.49898,-0.14969 0.24949,-0.19959 0.24949,-0.59878 v -18.66193 q 0,-0.39918 -0.24949,-0.54888 -0.24949,-0.19959 -0.49898,-0.19959 v -0.89817 h 17.71386 q 1.54684,0 1.54684,-0.89816 h 0.89817 v 5.5387 z"
       style="font-size:49.8982px;font-family:Copperplate;-inkscape-font-specification:'Copperplate, Normal'"
       id="path1067" />
    <path
       d="m 779.76436,178.83617 v 0.89817 q -1.14766,0 -1.14766,0.74847 v 16.6161 h 13.47251 q 0.59878,0 0.99797,-0.24949 0.39918,-0.29939 0.39918,-0.79837 h 0.89817 v 5.23931 h -0.89817 q 0,-0.39918 -0.39918,-0.44908 -0.39919,-0.0499 -0.99797,-0.0499 h -19.56009 v -0.89817 q 1.29735,0 1.29735,-0.74847 v -18.66193 q 0,-0.74847 -1.29735,-0.74847 v -0.89817 z"
       style="font-size:49.8982px;font-family:Copperplate;-inkscape-font-specification:'Copperplate, Normal'"
       id="path1069" />
  </g>
</svg>
