<?xml version="1.0" encoding="UTF-8" standalone="no"?>
<svg
   height="533.33331"
   width="1891.5629"
   viewBox="-45.0006 -75 614.76613 299.99999"
   version="1.1"
   id="svg1210"
   sodipodi:docname="wice_logo.svg"
   inkscape:version="1.1.1 (c3084ef, 2021-09-22)"
   xmlns:inkscape="http://www.inkscape.org/namespaces/inkscape"
   xmlns:sodipodi="http://sodipodi.sourceforge.net/DTD/sodipodi-0.dtd"
   xmlns="http://www.w3.org/2000/svg"
   xmlns:svg="http://www.w3.org/2000/svg">
  <sodipodi:namedview
     id="namedview958"
     pagecolor="#ffffff"
     bordercolor="#666666"
     borderopacity="1.0"
     inkscape:pageshadow="2"
     inkscape:pageopacity="0.0"
     inkscape:pagecheckerboard="0"
     showgrid="false"
     inkscape:zoom="0.59580362"
     inkscape:cx="935.711"
     inkscape:cy="286.16812"
     inkscape:window-width="1296"
     inkscape:window-height="969"
     inkscape:window-x="0"
     inkscape:window-y="44"
     inkscape:window-maximized="0"
     inkscape:current-layer="svg1210" />
  <defs
     id="defs1214" />
  <path
     d="m 30.125573,70.56 c 0,0 6.94,-145.56 -153.040003,-145.56 -141.48,0 -145.9,139.63 -145.9,139.63 0,0 -20.81,160.37 149.16,160.37 C 43.365573,225 30.125573,70.56 30.125573,70.56 Z"
     id="path1821"
     style="fill:#00378a;fill-opacity:1" />
  <circle
     cx="-118.54062"
     cy="193.79181"
     r="16.045702"
     id="circle824"
     style="fill:#ffffff;stroke-width:0.48054" />
  <path
     d="m -188.0728,-36.198827 c -29.53973,0 -53.48599,23.946255 -53.48599,53.485993 0,21.932313 13.20427,40.775717 32.09381,49.029468 0.0476,-24.218722 9.49931,-46.981408 26.62959,-64.1116877 9.72228,-9.7222796 21.25907,-16.9697793 33.84537,-21.4296683 -9.76072,-10.444531 -23.65889,-16.974105 -39.08278,-16.974105 z"
     id="path830"
     style="fill:#ffffff;stroke-width:0.48054" />
  <path
     d="m -49.008446,-36.198827 c -15.423884,0 -29.321092,6.529574 -39.082776,16.973624 12.586296,4.46085 24.124055,11.7083503 33.845373,21.4296688 C -37.114608,19.335707 -27.662872,42.100315 -27.61626,66.320478 -8.7252822,58.067689 4.4775466,39.22044 4.4775466,17.287166 c 0,-29.539738 -23.9467356,-53.485993 -53.4859926,-53.485993 z"
     id="path836"
     style="fill:#ffffff;stroke-width:0.48054" />
  <path
     d="m -27.614337,126.93384 v -16.04571 h -30.60942 c 21.622846,-29.305711 19.167288,-70.801276 -7.368115,-97.33668 -29.242284,-29.242764 -76.653778,-29.242764 -105.896538,0 -26.53588,26.535404 -28.99096,68.030969 -7.3686,97.33668 h -30.6099 v 16.04571 h 45.46387 l 9.56514,9.56514 -30.02604,6.67229 3.48103,15.66368 39.99339,-8.88711 13.13556,13.13556 c 2.94859,-0.89621 6.07402,-1.383 9.3119,-1.38348 3.2398,4.8e-4 6.36571,0.48727 9.31622,1.38444 l 13.136034,-13.13604 39.992438,8.88711 3.481029,-15.66368 -30.025563,-6.67229 9.565143,-9.56514 h 45.462422 z m -109.646673,-26.743 h -9.6e-4 c -5.89814,0 -10.69633,-4.79867 -10.69633,-10.697295 0.002,-5.899586 4.80107,-10.697295 10.69729,-10.697295 5.89863,0 10.6973,4.79867 10.6973,10.697295 0,5.898625 -4.79867,10.697295 -10.6973,10.697295 z m 37.440774,0 h -9.61e-4 c -5.897663,0 -10.696333,-4.79867 -10.696333,-10.697295 0.002,-5.899586 4.80107,-10.697295 10.697294,-10.697295 5.898625,0 10.697295,4.79867 10.697295,10.697295 -4.81e-4,5.898625 -4.79915,10.697295 -10.697295,10.697295 z"
     id="path842"
     style="fill:#ffffff;stroke-width:0.48054" />
  <g
     id="g13523"
     transform="matrix(0.85343274,0,0,0.85343274,-42.513815,-40.237199)"
     style="fill:#00378a;fill-opacity:1">
    <path
       d="m 518.08278,207.35711 q 5.70712,0 7.84729,-1.07009 2.14017,-1.42678 2.14017,-4.28034 V 68.60275 q 0,-2.85356 -2.14017,-3.923645 -2.14017,-1.42678 -7.84729,-1.42678 v -6.42051 h 54.21764 v 6.42051 q -9.98746,0 -9.98746,5.350425 v 133.40393 q 0,5.35043 9.98746,5.35043 v 6.42051 h -54.21764 z"
       style="font-size:356.695px;line-height:1.25;font-family:Copperplate;-inkscape-font-specification:'Copperplate, Normal';fill:#00378a;stroke-width:7.43112;fill-opacity:1"
       id="path12414" />
    <path
       d="m 758.13294,100.70531 q 0,-0.71339 -0.3567,-1.42678 0,-0.713394 0,-1.783479 0,-1.783475 -3.56695,-4.637035 -3.56695,-3.210255 -10.34415,-6.063815 -6.42051,-2.85356 -15.33789,-4.637035 -8.91737,-2.14017 -19.61822,-2.14017 -12.84102,0 -23.54187,3.56695 -10.34416,3.210255 -18.19145,9.98746 -7.84729,6.777204 -12.12763,16.764664 -4.28034,9.98746 -4.28034,22.82848 0,12.84102 4.63703,23.18518 4.99373,9.98746 12.84103,17.47805 7.84729,7.1339 17.83475,11.05755 9.98746,3.56695 20.33161,3.56695 9.63077,0 19.61823,-2.49687 9.98746,-2.49686 18.19144,-5.70712 8.20399,-3.56695 13.19772,-7.49059 5.35042,-3.92365 5.35042,-7.1339 v -2.85356 q 0,-2.14017 -0.35669,-3.56695 l 3.92364,-3.56695 26.39543,37.80967 -3.56695,1.78347 q -4.28034,-1.78347 -6.06381,-1.78347 -2.85356,0 -9.27407,3.21025 -6.42051,3.21026 -16.40797,7.4906 -9.63077,3.92364 -22.82848,6.7772 -12.84102,2.85356 -28.8923,2.85356 -16.40797,0 -32.45924,-4.63703 -16.05128,-4.63704 -28.53561,-14.6245 -12.48432,-10.34415 -20.33161,-25.32534 -7.84729,-15.33789 -7.84729,-35.31281 0,-19.97492 7.84729,-34.956109 7.84729,-14.98119 20.68831,-24.96865 12.84102,-10.344156 29.24899,-15.337886 16.76467,-4.99373 34.24272,-4.99373 13.55441,0 24.61196,2.496865 11.41424,2.496865 19.97492,5.70712 8.56068,3.210255 14.2678,5.70712 5.70712,2.496865 8.20398,2.496865 1.78348,0 2.85356,-1.070085 1.42678,-1.070085 2.85356,-1.783475 l 4.28034,2.496865 -23.54187,33.88603 z"
       style="font-size:356.695px;line-height:1.25;font-family:Copperplate;-inkscape-font-specification:'Copperplate, Normal';fill:#00378a;stroke-width:7.43112;fill-opacity:1"
       id="path12416" />
    <path
       d="m 970.59498,86.080811 q 0,-6.777205 -11.05755,-6.777205 h -87.03358 v 35.669504 h 54.93103 q 6.06382,0 8.91738,-0.71339 2.85356,-1.07009 2.85356,-4.99373 h 6.42051 v 37.80967 h -7.1339 q 1.07008,-3.92365 -2.85356,-4.63704 -3.92365,-1.07008 -11.05755,-1.07008 h -52.07747 v 42.09001 h 91.31392 q 4.28034,0 7.1339,-1.78348 2.85356,-2.14017 2.85356,-5.35042 h 6.42051 v 37.45297 h -6.42051 q 0,-3.21025 -2.85356,-3.56695 -2.85356,-0.35669 -7.1339,-0.35669 H 832.9107 v -6.42051 q 1.78348,0 3.56695,-1.07009 1.78348,-1.42678 1.78348,-4.28034 V 64.67911 q 0,-2.85356 -1.78348,-3.923645 -1.78347,-1.42678 -3.56695,-1.42678 v -6.42051 h 126.62673 q 11.05755,0 11.05755,-6.42051 h 6.42051 v 39.593146 z"
       style="font-size:356.695px;line-height:1.25;font-family:Copperplate;-inkscape-font-specification:'Copperplate, Normal';fill:#00378a;stroke-width:7.43112;fill-opacity:1"
       id="path12418" />
  </g>
  <g
     aria-label="ZeroConf, P2P VPN Tunnel"
     id="text5600"
     style="font-size:41.5814px;line-height:1.25;stroke-width:1.03954">
    <path
       d="m 120.14878,178.83617 h -13.57231 q -1.49695,0 -1.49695,1.39715 h -0.89817 v -6.88595 h 0.89817 q 0,1.19756 1.49695,1.19756 h 23.00307 v 1.39715 l -15.86763,20.25867 h 13.57231 q 1.39715,0 1.39715,-1.09776 h 0.89817 v 6.63646 h -0.89817 q 0,-0.94807 -1.39715,-0.94807 h -23.25256 v -1.39715 z"
       style="font-size:49.8982px;font-family:Copperplate;-inkscape-font-specification:'Copperplate, Normal'"
       id="path1029" />
    <path
       d="m 155.44318,183.47671 q 0,-0.94807 -1.54685,-0.94807 h -12.17516 v 4.98982 h 7.68433 q 0.84827,0 1.24745,-0.0998 0.39919,-0.14969 0.39919,-0.69857 h 0.89816 v 5.28921 h -0.99796 q 0.14969,-0.54888 -0.39919,-0.64868 -0.54888,-0.14969 -1.54684,-0.14969 h -7.28514 v 5.88798 h 12.77394 q 0.59878,0 0.99797,-0.24949 0.39918,-0.29939 0.39918,-0.74847 h 0.89817 v 5.23931 h -0.89817 q 0,-0.44908 -0.39918,-0.49898 -0.39919,-0.0499 -0.99797,-0.0499 h -18.31264 v -0.89817 q 0.24949,0 0.49898,-0.14969 0.2495,-0.19959 0.2495,-0.59878 v -18.66193 q 0,-0.39918 -0.2495,-0.54888 -0.24949,-0.19959 -0.49898,-0.19959 v -0.89817 h 17.71386 q 1.54685,0 1.54685,-0.89816 h 0.89817 v 5.5387 z"
       style="font-size:49.8982px;font-family:Copperplate;-inkscape-font-specification:'Copperplate, Normal'"
       id="path1031" />
    <path
       d="m 177.43035,188.31683 q 4.89003,0 4.89003,-3.09369 0,-1.24745 -1.19756,-1.94603 -1.14766,-0.74847 -3.69247,-0.74847 h -7.88391 v 5.78819 z m 0.0998,-9.48066 q 4.44094,0 6.93585,1.49695 2.49491,1.44705 2.49491,4.98982 0,1.34725 -0.49898,2.39511 -0.49898,1.04787 -1.34725,1.84624 -0.79837,0.74847 -1.79634,1.24745 -0.99796,0.44909 -2.04582,0.69858 l 4.89002,7.13544 q 0.39919,0.54888 0.84827,0.84827 0.49898,0.24949 1.04786,0.39918 v 0.89817 h -7.63442 v -0.89817 q 0.64867,0 0.64867,-0.44908 0,-0.49898 -0.74847,-1.54684 l -3.94196,-5.88799 h -6.93585 v 7.13544 q 0,0.39919 0.29939,0.59878 0.34929,0.14969 0.64868,0.14969 v 0.89817 h -6.63646 v -0.89817 q 0.89817,0 0.89817,-0.74847 v -18.66193 q 0,-0.74847 -0.89817,-0.74847 v -0.89817 z"
       style="font-size:49.8982px;font-family:Copperplate;-inkscape-font-specification:'Copperplate, Normal'"
       id="path1033" />
    <path
       d="m 205.58931,182.22925 q -1.59674,0 -3.14358,0.54888 -1.49695,0.49898 -2.69451,1.49695 -1.19755,0.94806 -1.94603,2.34521 -0.69857,1.39715 -0.69857,3.19349 0,1.79633 0.69857,3.19348 0.74848,1.39715 1.94603,2.39512 1.19756,0.94806 2.69451,1.49694 1.54684,0.49898 3.14358,0.49898 1.59675,0 3.09369,-0.49898 1.54685,-0.54888 2.7444,-1.49694 1.19756,-0.99797 1.89613,-2.39512 0.74848,-1.39715 0.74848,-3.19348 0,-1.79634 -0.74848,-3.19349 -0.69857,-1.39715 -1.89613,-2.34521 -1.19755,-0.99797 -2.7444,-1.49695 -1.49694,-0.54888 -3.09369,-0.54888 z m 0,-3.69247 q 2.7444,0 5.13952,0.69858 2.44501,0.69857 4.24134,2.09572 1.79634,1.39715 2.8442,3.54278 1.04786,2.09572 1.04786,4.93992 0,2.8442 -1.04786,4.98982 -1.04786,2.09572 -2.8442,3.49287 -1.79633,1.39715 -4.24134,2.04583 -2.39512,0.59878 -5.13952,0.59878 -2.7444,0 -5.18941,-0.59878 -2.39511,-0.64868 -4.19145,-2.04583 -1.79633,-1.39715 -2.8442,-3.49287 -1.04786,-2.14562 -1.04786,-4.98982 0,-2.8442 1.04786,-4.93992 1.04787,-2.14563 2.8442,-3.54278 1.79634,-1.39715 4.19145,-2.09572 2.44501,-0.69858 5.18941,-0.69858 z"
       style="font-size:49.8982px;font-family:Copperplate;-inkscape-font-specification:'Copperplate, Normal'"
       id="path1035" />
    <path
       d="m 252.85928,197.19871 q -0.14969,0 -0.29939,0 -0.0998,-0.0499 -0.24949,-0.0499 -0.29939,0 -1.44705,0.59878 -1.09776,0.59878 -2.84419,1.34725 -1.69654,0.74848 -3.89206,1.29736 -2.19552,0.54888 -4.59064,0.54888 -3.14358,0 -6.03768,-0.79837 -2.8941,-0.79838 -5.13952,-2.44502 -2.19552,-1.69654 -3.49287,-4.19145 -1.29735,-2.49491 -1.29735,-5.83809 0,-3.29328 1.29735,-5.78819 1.29735,-2.5448 3.49287,-4.24134 2.24542,-1.69654 5.13952,-2.54481 2.8941,-0.84827 6.03768,-0.84827 2.54481,0 4.59064,0.39918 2.09572,0.39919 3.64256,0.84827 1.54685,0.44909 2.44502,0.84827 0.89816,0.39919 1.09776,0.39919 0.24949,0 0.39918,-0.24949 0.1996,-0.24949 0.29939,-0.39919 l 0.74848,0.59878 -3.89206,6.03768 -0.49899,-0.34928 q 0,-0.1497 -0.0499,-0.29939 0,-0.1497 -0.0499,-0.34929 -0.0998,-0.54888 -0.99797,-1.09776 -0.89816,-0.59878 -2.24542,-1.04786 -1.29735,-0.44909 -2.7943,-0.74848 -1.44704,-0.29939 -2.6945,-0.29939 -2.09572,0 -4.04175,0.59878 -1.89613,0.59878 -3.34318,1.74644 -1.39715,1.14766 -2.24542,2.8442 -0.84827,1.64664 -0.84827,3.79226 0,2.14562 0.84827,3.84216 0.84827,1.64664 2.24542,2.7943 1.44705,1.14766 3.34318,1.74644 1.94603,0.59878 4.04175,0.59878 1.59674,0 3.34318,-0.34929 1.74644,-0.39919 3.19349,-0.94807 1.44704,-0.59878 2.39511,-1.29735 0.99796,-0.74847 0.99796,-1.39715 0,-0.34929 -0.19959,-0.59878 l 0.69858,-0.39918 3.29328,5.28921 z"
       style="font-size:49.8982px;font-family:Copperplate;-inkscape-font-specification:'Copperplate, Normal'"
       id="path1037" />
    <path
       d="m 272.15274,182.22925 q -1.59675,0 -3.14359,0.54888 -1.49695,0.49898 -2.6945,1.49695 -1.19756,0.94806 -1.94603,2.34521 -0.69858,1.39715 -0.69858,3.19349 0,1.79633 0.69858,3.19348 0.74847,1.39715 1.94603,2.39512 1.19755,0.94806 2.6945,1.49694 1.54684,0.49898 3.14359,0.49898 1.59674,0 3.09368,-0.49898 1.54685,-0.54888 2.74441,-1.49694 1.19755,-0.99797 1.89613,-2.39512 0.74847,-1.39715 0.74847,-3.19348 0,-1.79634 -0.74847,-3.19349 -0.69858,-1.39715 -1.89613,-2.34521 -1.19756,-0.99797 -2.74441,-1.49695 -1.49694,-0.54888 -3.09368,-0.54888 z m 0,-3.69247 q 2.7444,0 5.13951,0.69858 2.44501,0.69857 4.24135,2.09572 1.79633,1.39715 2.8442,3.54278 1.04786,2.09572 1.04786,4.93992 0,2.8442 -1.04786,4.98982 -1.04787,2.09572 -2.8442,3.49287 -1.79634,1.39715 -4.24135,2.04583 -2.39511,0.59878 -5.13951,0.59878 -2.74441,0 -5.18942,-0.59878 -2.39511,-0.64868 -4.19145,-2.04583 -1.79633,-1.39715 -2.84419,-3.49287 -1.04787,-2.14562 -1.04787,-4.98982 0,-2.8442 1.04787,-4.93992 1.04786,-2.14563 2.84419,-3.54278 1.79634,-1.39715 4.19145,-2.09572 2.44501,-0.69858 5.18942,-0.69858 z"
       style="font-size:49.8982px;font-family:Copperplate;-inkscape-font-specification:'Copperplate, Normal'"
       id="path1039" />
    <path
       d="m 291.4797,199.89321 q 0.89817,0 0.89817,-0.74847 v -18.66193 q 0,-0.74847 -0.89817,-0.74847 v -0.89817 h 7.33504 v 0.89817 q -0.34929,0.0499 -0.34929,0.24949 0,0.24949 1.09776,1.34725 l 11.97557,12.67415 v -13.52242 q 0,-0.74847 -0.99796,-0.74847 v -0.89817 h 6.08758 v 0.89817 q -0.89817,0 -0.89817,0.74847 v 18.66193 q 0,0.74847 0.89817,0.74847 v 0.89817 h -6.48677 v -0.89817 q 0.34929,0 0.34929,-0.24949 0,-0.19959 -0.49898,-0.69857 -0.44909,-0.49898 -1.04787,-1.14766 l -12.37475,-13.17313 v 14.52038 q 0,0.74847 1.04786,0.74847 v 0.89817 h -6.13748 z"
       style="font-size:49.8982px;font-family:Copperplate;-inkscape-font-specification:'Copperplate, Normal'"
       id="path1041" />
    <path
       d="m 345.41811,183.22722 q 0,-0.2495 -0.34929,-0.44909 -0.34929,-0.24949 -1.19756,-0.24949 h -13.52241 v 5.28921 h 8.78208 q 0.84827,0 1.04786,-0.1497 0.1996,-0.19959 0.2495,-0.59877 h 0.89816 v 5.23931 h -0.89816 q -0.0499,-0.39919 -0.2495,-0.59878 -0.19959,-0.19959 -1.04786,-0.19959 h -8.78208 v 7.63442 q 0,0.39919 0.34929,0.59878 0.34928,0.14969 0.79837,0.14969 v 0.89817 h -6.88595 v -0.89817 q 0.94806,0 0.94806,-0.74847 v -18.66193 q 0,-0.74847 -1.04786,-0.74847 v -0.89817 h 19.3605 q 0.84827,0 1.19756,-0.24949 0.34929,-0.24949 0.34929,-0.64867 h 0.89816 v 5.28921 z"
       style="font-size:49.8982px;font-family:Copperplate;-inkscape-font-specification:'Copperplate, Normal'"
       id="path1043" />
    <path
       d="m 351.13846,206.57957 q 0.74847,-0.19959 1.69654,-0.79837 0.94807,-0.54888 1.69654,-1.34725 0.79837,-0.74847 1.29735,-1.64664 0.49898,-0.89817 0.39919,-1.79634 -0.0998,-0.19959 -0.54888,-0.24949 -0.44909,-0.0499 -0.84827,-0.0499 -1.24746,0 -2.19552,-0.79838 -0.89817,-0.84827 -0.89817,-2.34521 0,-1.44705 0.99796,-2.49491 1.04787,-1.04786 2.34522,-1.04786 1.99593,0 2.99389,1.44704 1.04786,1.44705 1.04786,3.54278 0,1.59674 -0.69857,3.04379 -0.64868,1.49694 -1.74644,2.7444 -1.09776,1.24745 -2.54481,2.14562 -1.44704,0.89817 -2.99389,1.24746 z"
       style="font-size:49.8982px;font-family:Copperplate;-inkscape-font-specification:'Copperplate, Normal'"
       id="path1045" />
    <path
       d="m 400.90569,185.52253 q 1.64664,0 2.7943,-0.64867 1.19755,-0.64868 1.19755,-2.54481 0,-1.89613 -1.19755,-2.54481 -1.14766,-0.64868 -2.7943,-0.64868 h -10.62832 v 6.38697 z m -18.16295,15.26885 v -0.89817 q 1.84623,0 1.84623,-0.89816 v -22.65379 q 0,-0.89816 -1.84623,-0.89816 v -0.89817 h 17.56417 q 4.79022,0 7.53463,1.79633 2.7444,1.74644 2.7444,5.98779 0,4.24134 -2.7444,6.03768 -2.74441,1.74644 -7.53463,1.74644 h -10.02954 v 8.88188 q 0,0.89816 1.59674,0.89816 v 0.89817 z"
       style="font-size:49.8982px;font-family:Copperplate;-inkscape-font-specification:'Copperplate, Normal'"
       id="path1047" />
    <path
       d="m 439.62514,201.44006 h -0.59878 q 0,-0.54888 -0.49898,-0.59878 -0.44909,-0.0499 -0.99797,-0.0499 h -21.00714 q -0.54888,0 -0.89817,0.0499 -0.34929,0.0998 -0.34929,0.54888 h -0.59877 v -1.79633 q 0,-2.64461 1.29735,-4.54074 1.34725,-1.89613 3.34318,-3.34318 1.99593,-1.44705 4.29124,-2.54481 2.29532,-1.09776 4.29125,-2.14562 1.99593,-1.09776 3.29328,-2.24542 1.34725,-1.14766 1.34725,-2.6945 0,-1.04787 -0.49898,-1.69654 -0.44908,-0.69858 -1.19756,-1.09776 -0.74847,-0.44909 -1.64664,-0.59878 -0.89817,-0.1497 -1.74643,-0.1497 -0.84827,0 -2.09573,0.29939 -1.24745,0.29939 -2.39511,0.89817 -1.14766,0.59878 -1.99593,1.44705 -0.79837,0.79837 -0.79837,1.84623 0,0.24949 0.0998,0.64868 0.1497,0.39918 0.34929,0.54888 l -0.49898,0.34929 -5.13952,-5.48881 0.49899,-0.34928 q 0.19959,0.0998 0.39918,0.19959 0.1996,0.0998 0.44909,0.0998 0.29939,0 1.09776,-0.74848 0.79837,-0.74847 2.19552,-1.64664 1.39715,-0.89817 3.49287,-1.64664 2.09573,-0.74847 4.98982,-0.74847 1.89613,0 3.69247,0.44908 1.84623,0.44909 3.24338,1.44705 1.44705,0.94807 2.29532,2.49491 0.89817,1.49695 0.89817,3.69247 0,2.34521 -0.89817,3.89206 -0.89817,1.54684 -2.39511,2.6446 -1.44705,1.04786 -3.29329,1.79634 -1.84623,0.74847 -3.79226,1.49694 -1.89613,0.69858 -3.69247,1.49695 -1.74643,0.79837 -3.09368,2.04583 v 0.49898 h 16.4664 q 0.54888,0 0.99797,-0.1996 0.49898,-0.19959 0.49898,-1.19755 h 0.59878 z"
       style="font-size:49.8982px;font-family:Copperplate;-inkscape-font-specification:'Copperplate, Normal'"
       id="path1049" />
    <path
       d="m 464.74028,185.52253 q 1.64664,0 2.7943,-0.64867 1.19756,-0.64868 1.19756,-2.54481 0,-1.89613 -1.19756,-2.54481 -1.14766,-0.64868 -2.7943,-0.64868 h -10.62832 v 6.38697 z m -18.16294,15.26885 v -0.89817 q 1.84623,0 1.84623,-0.89816 v -22.65379 q 0,-0.89816 -1.84623,-0.89816 v -0.89817 h 17.56416 q 4.79023,0 7.53463,1.79633 2.7444,1.74644 2.7444,5.98779 0,4.24134 -2.7444,6.03768 -2.7444,1.74644 -7.53463,1.74644 h -10.02954 v 8.88188 q 0,0.89816 1.59675,0.89816 v 0.89817 z"
       style="font-size:49.8982px;font-family:Copperplate;-inkscape-font-specification:'Copperplate, Normal'"
       id="path1051" />
    <path
       d="m 521.94814,175.4431 q -0.99796,0 -1.44705,0.74847 -0.44908,0.69857 -0.64868,1.14766 l -8.83198,19.4104 q -0.44908,0.99796 -0.74847,1.59674 -0.29939,0.59878 -0.29939,0.84827 0,0.24949 0.0998,0.39919 0.14969,0.14969 0.34928,0.29938 v 0.89817 h -7.63442 v -0.89817 q 0.44908,-0.19959 0.44908,-0.69857 0,-0.24949 -0.39918,-0.99796 -0.34929,-0.79838 -0.89817,-1.94603 l -8.98168,-19.5102 q -0.24949,-0.54888 -0.69857,-0.79837 -0.44908,-0.24949 -1.29735,-0.49898 v -0.89817 h 8.93177 v 0.89817 q -0.34928,0 -0.69857,0.19959 -0.29939,0.14969 -0.29939,0.64868 0,0.54888 0.39919,1.39714 0.44908,0.84827 1.04786,2.09573 l 6.38697,13.722 6.23727,-13.52241 q 0.59878,-1.29735 1.09776,-2.29532 0.54888,-1.04786 0.54888,-1.44704 0,-0.79837 -1.39715,-0.79837 v -0.89817 h 8.73219 z"
       style="font-size:49.8982px;font-family:Copperplate;-inkscape-font-specification:'Copperplate, Normal'"
       id="path1053" />
    <path
       d="m 545.09932,185.52253 q 1.64664,0 2.7943,-0.64867 1.19756,-0.64868 1.19756,-2.54481 0,-1.89613 -1.19756,-2.54481 -1.14766,-0.64868 -2.7943,-0.64868 H 534.471 v 6.38697 z m -18.16295,15.26885 v -0.89817 q 1.84624,0 1.84624,-0.89816 v -22.65379 q 0,-0.89816 -1.84624,-0.89816 v -0.89817 h 17.56417 q 4.79023,0 7.53463,1.79633 2.7444,1.74644 2.7444,5.98779 0,4.24134 -2.7444,6.03768 -2.7444,1.74644 -7.53463,1.74644 H 534.471 v 8.88188 q 0,0.89816 1.59675,0.89816 v 0.89817 z"
       style="font-size:49.8982px;font-family:Copperplate;-inkscape-font-specification:'Copperplate, Normal'"
       id="path1055" />
    <path
       d="m 561.01529,199.89321 q 0.94807,0 0.94807,-0.89816 v -22.65379 q 0,-0.89816 -0.94807,-0.89816 v -0.89817 h 8.53259 v 0.89817 q -0.39918,0 -0.39918,0.49898 0,0.39918 0.99796,1.39715 l 14.32079,14.86966 v -15.86763 q 0,-0.89816 -1.29736,-0.89816 v -0.89817 h 7.53463 v 0.89817 q -0.94806,0 -0.94806,0.89816 v 22.65379 q 0,0.89816 0.94806,0.89816 v 0.89817 h -8.08351 v -0.89817 q 0.64868,0 0.64868,-0.44908 0,-0.34929 -0.79837,-1.14766 l -15.21895,-15.86763 v 16.56621 q 0,0.89816 1.14766,0.89816 v 0.89817 h -7.38494 z"
       style="font-size:49.8982px;font-family:Copperplate;-inkscape-font-specification:'Copperplate, Normal'"
       id="path1057" />
    <path
       d="m 628.52913,198.99505 q 0,0.89816 1.09776,0.89816 v 0.89817 h -7.68432 v -0.89817 q 0.34928,0 0.59878,-0.19959 0.29938,-0.24949 0.29938,-0.69857 v -19.85949 h -8.2332 q -0.44908,0 -0.89817,0.24949 -0.39918,0.24949 -0.39918,0.94807 h -0.89817 v -6.98575 h 0.89817 q 0,0.69858 0.39918,0.94807 0.44909,0.24949 0.89817,0.24949 h 22.1548 q 0.44909,0 0.84827,-0.24949 0.44909,-0.24949 0.44909,-0.94807 h 0.89816 v 6.98575 h -0.89816 q 0,-0.69858 -0.44909,-0.94807 -0.39918,-0.24949 -0.84827,-0.24949 h -8.2332 z"
       style="font-size:49.8982px;font-family:Copperplate;-inkscape-font-specification:'Copperplate, Normal'"
       id="path1059" />
    <path
       d="m 651.79804,179.73434 q -1.09776,0 -1.09776,0.74847 v 11.42669 q 0,2.39512 1.74644,3.84216 1.74643,1.44705 5.3391,1.44705 3.59268,0 5.33911,-1.44705 1.74644,-1.44704 1.74644,-3.84216 v -11.42669 q 0,-0.74847 -1.24746,-0.74847 v -0.89817 h 6.93585 v 0.89817 q -1.09776,0 -1.09776,0.74847 v 12.62425 q 0,1.54684 -0.69857,2.99389 -0.69858,1.39715 -2.14562,2.49491 -1.39715,1.09776 -3.64257,1.74644 -2.19552,0.59878 -5.18942,0.59878 -2.99389,0 -5.23931,-0.59878 -2.19552,-0.64868 -3.64257,-1.74644 -1.39714,-1.09776 -2.09572,-2.49491 -0.69857,-1.44705 -0.69857,-2.99389 v -12.62425 q 0,-0.39918 -0.29939,-0.54888 -0.29939,-0.19959 -1.14766,-0.19959 v -0.89817 h 7.13544 z"
       style="font-size:49.8982px;font-family:Copperplate;-inkscape-font-specification:'Copperplate, Normal'"
       id="path1061" />
    <path
       d="m 678.34233,199.89321 q 0.89817,0 0.89817,-0.74847 v -18.66193 q 0,-0.74847 -0.89817,-0.74847 v -0.89817 h 7.33504 v 0.89817 q -0.34929,0.0499 -0.34929,0.24949 0,0.24949 1.09776,1.34725 l 11.97557,12.67415 v -13.52242 q 0,-0.74847 -0.99797,-0.74847 v -0.89817 h 6.08758 v 0.89817 q -0.89816,0 -0.89816,0.74847 v 18.66193 q 0,0.74847 0.89816,0.74847 v 0.89817 h -6.48676 v -0.89817 q 0.34928,0 0.34928,-0.24949 0,-0.19959 -0.49898,-0.69857 -0.44908,-0.49898 -1.04786,-1.14766 l -12.37475,-13.17313 v 14.52038 q 0,0.74847 1.04786,0.74847 v 0.89817 h -6.13748 z"
       style="font-size:49.8982px;font-family:Copperplate;-inkscape-font-specification:'Copperplate, Normal'"
       id="path1063" />
    <path
       d="m 711.67277,199.89321 q 0.89817,0 0.89817,-0.74847 v -18.66193 q 0,-0.74847 -0.89817,-0.74847 v -0.89817 h 7.33504 v 0.89817 q -0.34929,0.0499 -0.34929,0.24949 0,0.24949 1.09776,1.34725 l 11.97557,12.67415 v -13.52242 q 0,-0.74847 -0.99796,-0.74847 v -0.89817 h 6.08758 v 0.89817 q -0.89817,0 -0.89817,0.74847 v 18.66193 q 0,0.74847 0.89817,0.74847 v 0.89817 h -6.48677 v -0.89817 q 0.34929,0 0.34929,-0.24949 0,-0.19959 -0.49898,-0.69857 -0.44909,-0.49898 -1.04787,-1.14766 l -12.37475,-13.17313 v 14.52038 q 0,0.74847 1.04786,0.74847 v 0.89817 h -6.13748 z"
       style="font-size:49.8982px;font-family:Copperplate;-inkscape-font-specification:'Copperplate, Normal'"
       id="path1065" />
    <path
       d="m 764.31382,183.47671 q 0,-0.94807 -1.54684,-0.94807 h -12.17516 v 4.98982 h 7.68432 q 0.84827,0 1.24745,-0.0998 0.39919,-0.14969 0.39919,-0.69857 h 0.89817 v 5.28921 h -0.99797 q 0.1497,-0.54888 -0.39918,-0.64868 -0.54888,-0.14969 -1.54685,-0.14969 h -7.28513 v 5.88798 h 12.77394 q 0.59877,0 0.99796,-0.24949 0.39919,-0.29939 0.39919,-0.74847 h 0.89816 v 5.23931 h -0.89816 q 0,-0.44908 -0.39919,-0.49898 -0.39919,-0.0499 -0.99796,-0.0499 h -18.31264 v -0.89817 q 0.24949,0 0.49898,-0.14969 0.24949,-0.19959 0.24949,-0.59878 v -18.66193 q 0,-0.39918 -0.24949,-0.54888 -0.24949,-0.19959 -0.49898,-0.19959 v -0.89817 h 17.71386 q 1.54684,0 1.54684,-0.89816 h 0.89817 v 5.5387 z"
       style="font-size:49.8982px;font-family:Copperplate;-inkscape-font-specification:'Copperplate, Normal'"
       id="path1067" />
    <path
       d="m 779.76436,178.83617 v 0.89817 q -1.14766,0 -1.14766,0.74847 v 16.6161 h 13.47251 q 0.59878,0 0.99797,-0.24949 0.39918,-0.29939 0.39918,-0.79837 h 0.89817 v 5.23931 h -0.89817 q 0,-0.39918 -0.39918,-0.44908 -0.39919,-0.0499 -0.99797,-0.0499 h -19.56009 v -0.89817 q 1.29735,0 1.29735,-0.74847 v -18.66193 q 0,-0.74847 -1.29735,-0.74847 v -0.89817 z"
       style="font-size:49.8982px;font-family:Copperplate;-inkscape-font-specification:'Copperplate, Normal'"
       id="path1069" />
  </g>
  <text
     xml:space="preserve"
     style="font-style:normal;font-weight:normal;font-size:293.479px;line-height:1.25;font-family:sans-serif;fill:#00378a;fill-opacity:1;stroke:none;stroke-width:7.33704"
     x="68.183502"
     y="43.038013"
     id="text12580"
     transform="scale(1,-1)"><tspan
       id="tspan12578"
       style="font-style:normal;font-variant:normal;font-weight:normal;font-stretch:normal;font-size:352.178px;font-family:Copperplate;-inkscape-font-specification:'Copperplate, Normal';font-variant-ligatures:normal;font-variant-caps:normal;font-variant-numeric:normal;font-variant-east-asian:normal;fill:#00378a;fill-opacity:1;stroke-width:7.33704"
       x="68.183502"
       y="43.038013">M</tspan></text>
</svg>
