<?xml version="1.0" encoding="UTF-8" standalone="no"?>
<!-- Created with Inkscape (http://www.inkscape.org/) -->

<svg
   width="56mm"
   height="96mm"
   viewBox="0 0 55.999999 96"
   version="1.1"
   id="svg5"
   inkscape:version="1.1.2 (b8e25be8, 2022-02-05)"
   sodipodi:docname="cunicu_sticker.svg"
   xmlns:inkscape="http://www.inkscape.org/namespaces/inkscape"
   xmlns:sodipodi="http://sodipodi.sourceforge.net/DTD/sodipodi-0.dtd"
   xmlns:xlink="http://www.w3.org/1999/xlink"
   xmlns="http://www.w3.org/2000/svg"
   xmlns:svg="http://www.w3.org/2000/svg">
  <sodipodi:namedview
     id="namedview7"
     pagecolor="#ffffff"
     bordercolor="#666666"
     borderopacity="1.0"
     inkscape:pageshadow="2"
     inkscape:pageopacity="0.0"
     inkscape:pagecheckerboard="0"
     inkscape:document-units="mm"
     showgrid="false"
     inkscape:zoom="1.775907"
     inkscape:cx="98.822742"
     inkscape:cy="146.12252"
     inkscape:window-width="1800"
     inkscape:window-height="1097"
     inkscape:window-x="0"
     inkscape:window-y="44"
     inkscape:window-maximized="1"
     inkscape:current-layer="layer1"
     fit-margin-top="4"
     fit-margin-left="4"
     fit-margin-right="4"
     fit-margin-bottom="4"
     lock-margins="true"
     inkscape:snap-object-midpoints="true"
     width="56mm" />
  <defs
     id="defs2" />
  <g
     inkscape:label="Layer 1"
     inkscape:groupmode="layer"
     id="layer1"
     transform="translate(-15.618505,-149.3409)">
    <g
       id="g4526"
       transform="rotate(90,42.824756,177.60548)">
      <g
         id="g2038"
         style="opacity:0.912621;stroke:#f2f2f2"
         transform="matrix(1.5514324,0,0,1.5514324,-105.25197,-33.514814)">
        <path
           style="fill:none;stroke:#f2f2f2;stroke-width:0.264583px;stroke-linecap:butt;stroke-linejoin:miter;stroke-opacity:1"
           d="m 85.05065,148.58647 10.637682,3.8186"
           id="path1646" />
        <g
           id="g2012"
           style="stroke:#f2f2f2">
          <path
             style="fill:none;stroke:#f2f2f2;stroke-width:0.264583px;stroke-linecap:butt;stroke-linejoin:miter;stroke-opacity:1"
             d="m 95.688332,152.40507 6.574288,-6.20373"
             id="path1769" />
          <g
             id="g1988"
             style="stroke:#f2f2f2">
            <path
               style="fill:none;stroke:#f2f2f2;stroke-width:0.264583px;stroke-linecap:butt;stroke-linejoin:miter;stroke-opacity:1"
               d="m 133.80862,145.77911 1.19004,5.12888"
               id="path1638" />
            <g
               id="g1966"
               style="stroke:#f2f2f2">
              <path
                 style="fill:none;stroke:#f2f2f2;stroke-width:0.264583px;stroke-linecap:butt;stroke-linejoin:miter;stroke-opacity:1"
                 d="m 106.40081,120.92115 7.30418,6.85485"
                 id="path1648" />
              <path
                 style="fill:none;stroke:#f2f2f2;stroke-width:0.264583px;stroke-linecap:butt;stroke-linejoin:miter;stroke-opacity:1"
                 d="m 120.98285,126.68735 9.91636,-0.98013 4.34404,5.09513 3.71096,4.80831"
                 id="path1650" />
              <path
                 style="fill:none;stroke:#f2f2f2;stroke-width:0.264583px;stroke-linecap:butt;stroke-linejoin:miter;stroke-opacity:1"
                 d="m 135.24325,130.80235 -6.53445,4.05912"
                 id="path1652" />
              <g
                 id="g1946"
                 style="stroke:#f2f2f2">
                <path
                   style="fill:none;stroke:#f2f2f2;stroke-width:0.264583px;stroke-linecap:butt;stroke-linejoin:miter;stroke-opacity:1"
                   d="m 103.68987,130.72519 -6.630232,-7.20107"
                   id="path1628" />
                <path
                   style="fill:none;stroke:#f2f2f2;stroke-width:0.264583px;stroke-linecap:butt;stroke-linejoin:miter;stroke-opacity:1"
                   d="m 130.89921,125.70722 9.09253,-4.42385 -6.88864,-1.70982 -2.20389,6.13367 -5.7311,-6.41663"
                   id="path1654" />
                <g
                   id="g1930"
                   style="stroke:#f2f2f2">
                  <path
                     style="fill:none;stroke:#f2f2f2;stroke-width:0.264583px;stroke-linecap:butt;stroke-linejoin:miter;stroke-opacity:1"
                     d="m 77.603058,119.18259 9.892927,4.42953 9.563654,-0.088"
                     id="path1626" />
                  <path
                     style="fill:none;stroke:#f2f2f2;stroke-width:0.264583px;stroke-linecap:butt;stroke-linejoin:miter;stroke-opacity:1"
                     d="m 92.387938,132.63113 1.46405,6.2101"
                     id="path1630" />
                  <path
                     style="fill:none;stroke:#f2f2f2;stroke-width:0.264583px;stroke-linecap:butt;stroke-linejoin:miter;stroke-opacity:1"
                     d="m 95.688332,152.40507 -0.452777,-7.84024 4.703287,-5.86007 -6.086854,0.13647 1.383567,5.7236 -11.027616,-2.34475 -6.223465,-3.18717 3.43305,-10.44873 6.078461,-4.97206 4.891953,9.01901 -14.403464,6.40178 -0.04428,9.97913 3.437088,2.74425 z"
                     id="path1642" />
                  <path
                     style="fill:none;stroke:#f2f2f2;stroke-width:0.264583px;stroke-linecap:butt;stroke-linejoin:miter;stroke-opacity:1"
                     d="m 85.05065,148.58647 -0.842711,-6.36639 -6.267746,6.79196"
                     id="path1644" />
                  <g
                     id="g1917"
                     style="stroke:#f2f2f2">
                    <path
                       style="fill:none;stroke:#f2f2f2;stroke-width:0.264583px;stroke-linecap:butt;stroke-linejoin:miter;stroke-opacity:1"
                       d="m 99.938842,138.70476 11.101188,-3.39044 10.92742,-2.16242 8.97646,7.91091 2.86471,4.7163 4.00069,-3.30812 1.1449,-6.86033 -10.24541,-0.74919 -7.72595,-8.17412 0.9846,6.46455"
                       id="path1632" />
                    <path
                       style="fill:none;stroke:#f2f2f2;stroke-width:0.264583px;stroke-linecap:butt;stroke-linejoin:miter;stroke-opacity:1"
                       d="m 102.26262,146.20134 8.77741,-10.88702 -7.35016,-4.58913 10.01512,-2.94919 7.27786,-1.08865 -4.90684,-7.51989 -2.37102,8.60854"
                       id="path1634" />
                    <g
                       id="g1909"
                       style="stroke:#f2f2f2">
                      <path
                         style="fill:none;stroke:#f2f2f2;stroke-width:0.264583px;stroke-linecap:butt;stroke-linejoin:miter;stroke-opacity:1"
                         d="m 119.02312,143.70337 3.65053,8.10199 11.13497,-6.02625"
                         id="path1636" />
                      <path
                         style="fill:none;stroke:#f2f2f2;stroke-width:0.264583px;stroke-linecap:butt;stroke-linejoin:miter;stroke-opacity:1"
                         d="m 102.26262,146.20134 7.86788,-1.08937 8.89262,-1.4086 2.94433,-10.55147"
                         id="path1640" />
                    </g>
                    <path
                       style="fill:none;stroke:#f2f2f2;stroke-width:0.264583px;stroke-linecap:butt;stroke-linejoin:miter;stroke-opacity:1"
                       d="m 106.40081,120.92115 -9.341172,2.60297"
                       id="path1771" />
                  </g>
                </g>
              </g>
            </g>
          </g>
        </g>
      </g>
      <g
         id="g2094"
         style="opacity:0.582524;fill:#ececec"
         transform="matrix(1.5514324,0,0,1.5514324,-105.17331,-33.322313)">
        <circle
           style="fill:#ececec;stroke-width:0.865"
           id="path949"
           cx="111.04003"
           cy="135.31432"
           r="1.1484575" />
        <circle
           style="fill:#ececec;stroke-width:0.865"
           id="circle1031"
           cx="125.16811"
           cy="119.29059"
           r="1.1484575" />
        <circle
           style="fill:#ececec;stroke-width:0.865"
           id="circle1033"
           cx="135.24326"
           cy="130.80235"
           r="1.1484575" />
        <circle
           style="fill:#ececec;stroke-width:0.865"
           id="circle1035"
           cx="121.96745"
           cy="133.1519"
           r="1.1484575" />
        <circle
           style="fill:#ececec;stroke-width:0.865"
           id="circle1037"
           cx="99.938843"
           cy="138.70476"
           r="1.1484575" />
        <circle
           style="fill:#ececec;stroke-width:0.865"
           id="circle1039"
           cx="122.67365"
           cy="151.80536"
           r="1.1484575" />
        <circle
           style="fill:#ececec;stroke-width:0.865"
           id="circle1041"
           cx="113.70499"
           cy="127.776"
           r="1.1484575" />
        <circle
           style="fill:#ececec;stroke-width:0.865"
           id="circle1043"
           cx="97.059639"
           cy="123.52412"
           r="1.1484575" />
        <circle
           style="fill:#ececec;stroke-width:0.865"
           id="circle1047"
           cx="116.07601"
           cy="119.16746"
           r="1.1484575" />
        <circle
           style="fill:#ececec;stroke-width:0.865"
           id="circle1049"
           cx="84.207939"
           cy="142.22008"
           r="1.1484575" />
        <circle
           style="fill:#ececec;stroke-width:0.865"
           id="circle1051"
           cx="77.603058"
           cy="119.18259"
           r="1.1484575" />
        <circle
           style="fill:#ececec;stroke-width:0.865"
           id="circle1053"
           cx="110.1305"
           cy="145.11197"
           r="1.1484575" />
        <circle
           style="fill:#ececec;stroke-width:0.865"
           id="circle1055"
           cx="77.940193"
           cy="149.01204"
           r="1.1484575" />
        <circle
           style="fill:#ececec;stroke-width:0.865"
           id="circle1057"
           cx="81.417526"
           cy="128.58418"
           r="1.1484575" />
        <circle
           style="fill:#ececec;stroke-width:0.865"
           id="circle1059"
           cx="128.7088"
           cy="134.86147"
           r="1.1484575" />
        <circle
           style="fill:#ececec;stroke-width:0.865"
           id="circle1065"
           cx="92.387939"
           cy="132.63113"
           r="1.1484575" />
        <circle
           style="fill:#ececec;stroke-width:0.865"
           id="circle1067"
           cx="130.94391"
           cy="141.06281"
           r="1.1484575" />
        <circle
           style="fill:#ececec;stroke-width:0.865"
           id="circle1069"
           cx="77.984474"
           cy="139.03291"
           r="1.1484575" />
        <circle
           style="fill:#ececec;stroke-width:0.865"
           id="circle1071"
           cx="139.99174"
           cy="121.28337"
           r="1.1484575" />
        <circle
           style="fill:#ececec;stroke-width:0.865"
           id="circle1073"
           cx="95.688332"
           cy="152.40508"
           r="1.1484575" />
        <circle
           style="fill:#ececec;stroke-width:0.865"
           id="circle1075"
           cx="106.40081"
           cy="120.92115"
           r="1.1484575" />
        <circle
           style="fill:#ececec;stroke-width:0.865"
           id="circle1077"
           cx="95.235558"
           cy="144.56483"
           r="1.1484575" />
        <circle
           style="fill:#ececec;stroke-width:0.865"
           id="circle1079"
           cx="103.68987"
           cy="130.72519"
           r="1.1484575" />
        <circle
           style="fill:#ececec;stroke-width:0.865"
           id="circle1081"
           cx="93.85199"
           cy="138.84123"
           r="1.1484575" />
        <circle
           style="fill:#ececec;stroke-width:0.865"
           id="circle1083"
           cx="133.1031"
           cy="119.57355"
           r="1.1484575" />
        <circle
           style="fill:#ececec;stroke-width:0.865"
           id="circle1085"
           cx="119.02312"
           cy="143.70337"
           r="1.1484575" />
        <circle
           style="fill:#ececec;stroke-width:0.865"
           id="circle1089"
           cx="138.95421"
           cy="135.61066"
           r="1.1484575" />
        <circle
           style="fill:#ececec;stroke-width:0.865"
           id="circle1091"
           cx="134.99866"
           cy="150.90799"
           r="1.1484575" />
        <circle
           style="fill:#ececec;stroke-width:0.865"
           id="circle1093"
           cx="130.89922"
           cy="125.70722"
           r="1.1484575" />
        <circle
           style="fill:#ececec;stroke-width:0.865"
           id="circle1095"
           cx="137.80931"
           cy="142.47099"
           r="1.1484575" />
        <circle
           style="fill:#ececec;stroke-width:0.865"
           id="circle1099"
           cx="85.050652"
           cy="148.58647"
           r="1.1484575" />
        <circle
           style="fill:#ececec;stroke-width:0.865"
           id="circle1103"
           cx="120.98285"
           cy="126.68735"
           r="1.1484575" />
        <circle
           style="fill:#ececec;stroke-width:0.865"
           id="circle1105"
           cx="87.495987"
           cy="123.61212"
           r="1.1484575" />
        <circle
           style="fill:#ececec;stroke-width:0.865"
           id="circle1107"
           cx="133.80862"
           cy="145.77911"
           r="1.1484575" />
        <circle
           style="fill:#ececec;stroke-width:0.865"
           id="circle1109"
           cx="81.377281"
           cy="151.75629"
           r="1.1484575" />
        <circle
           style="fill:#ececec;stroke-width:0.865"
           id="circle1111"
           cx="102.26262"
           cy="146.20134"
           r="1.1484575" />
      </g>
    </g>
    <g
       id="g10230"
       transform="translate(0.81610962,0.52914768)">
      <use
         x="0"
         y="0"
         xlink:href="#path1263"
         id="use5372"
         transform="translate(0,16.23032)"
         width="100%"
         height="100%" />
      <g
         id="g4452"
         transform="matrix(0,0.5824076,-0.5824076,0,154.07413,143.73144)">
        <path
           id="path9516"
           style="fill:#aa8800;fill-opacity:1;stroke:none;stroke-width:1.01017;stroke-miterlimit:4;stroke-dasharray:none"
           d="m 20.61272,182.13022 c 6.263914,2.19296 13.240379,1.8699 19.477401,-0.25077 3.750446,-1.3138 7.366388,-3.36284 9.919718,-6.46589 -5.568559,-2.24974 -11.8103,-2.33158 -17.641723,-1.16345 -4.367199,0.92658 -8.711648,2.60751 -12.080712,5.61271 -0.8089,0.7384 -0.982195,1.97658 0.325316,2.2674 z"
           inkscape:transform-center-y="3.3052067"
           inkscape:transform-center-x="15.313761"
           sodipodi:nodetypes="cccc" />
        <path
           id="path7408"
           style="fill:#d4aa00;stroke:none;stroke-width:0.999999px;stroke-linecap:butt;stroke-linejoin:miter;stroke-opacity:1"
           d="m 40.007812,15.119141 c -10.454774,3.729789 5.410293,17.134514 8.691407,22.740234 26.454746,28.190854 61.641221,47.01597 97.927731,59.376953 -31.45318,20.749762 -54.224246,52.470102 -68.132809,87.148442 -7.821188,19.25703 -14.693766,39.0128 -20.22461,59.00585 -0.204245,3.78872 1.793546,8.82712 6.28711,8.74219 H 159.2793 c 13.71547,-3.28467 4.57001,-19.95863 5.625,-29.48047 -1.09493,-23.38892 1.81595,-47.24103 9.47265,-69.39257 5.06643,-13.55415 20.4166,-16.90824 33.17969,-18.29688 11.80227,-1.90469 24.27878,-4.27684 34.13672,-11.41992 5.44796,-9.13848 -2.97771,-19.52994 -6.02344,-28.300782 C 229.54986,80.771624 216.16456,69.722341 200.37891,67.986328 189.2083,65.551859 176.90145,68.065775 166.29883,66.591797 144.04426,44.660521 115.62119,29.15663 84.863281,23.300781 69.938343,20.490891 55.092515,16.854208 40.007812,15.119141 Z M 219.19531,84.197266 a 5.8683811,5.8683811 0 0 1 5.86914,5.86914 5.8683811,5.8683811 0 0 1 -5.86914,5.867188 5.8683811,5.8683811 0 0 1 -5.86719,-5.867188 5.8683811,5.8683811 0 0 1 5.86719,-5.86914 z"
           transform="matrix(0.26458333,0,0,0.26458333,15.618505,149.3409)" />
        <circle
           style="fill:#d4aa00;fill-opacity:1;stroke:none;stroke-width:0.765213;stroke-miterlimit:4;stroke-dasharray:none"
           id="path7894"
           cx="25.933784"
           cy="207.18184"
           r="3.6257191" />
      </g>
      <path
         d="m 22.471215,190.68122 q 0,-0.22828 0.11136,-0.4148 0.11135,-0.18652 0.29788,-0.29787 0.18652,-0.11136 0.4148,-0.11136 0.22828,0 0.4148,0.11136 0.18652,0.11135 0.29788,0.29787 0.11135,0.18652 0.11135,0.4148 0,0.22828 -0.11135,0.41481 -0.11136,0.18652 -0.29788,0.29787 -0.18652,0.11136 -0.4148,0.11136 -0.22828,0 -0.4148,-0.11136 -0.18653,-0.11135 -0.29788,-0.29787 -0.11136,-0.18653 -0.11136,-0.41481 z"
         style="font-size:11.5459px;line-height:1.25;font-family:'Cascadia Code PL';-inkscape-font-specification:'Cascadia Code PL';fill:#4d4d4d;stroke-width:0.142536"
         id="path1263" />
      <g
         id="g1610"
         transform="matrix(0,0.49380551,-0.49380551,0,136.25445,145.05938)">
        <path
           d="m 137.78707,231.69681 v -4.5665 q 0,-0.62014 -0.46228,-0.62014 -0.58632,0 -0.58632,0.81182 l -0.40591,-0.85692 h 0.46229 q 0.0282,-0.34953 0.27624,-0.60323 0.2537,-0.25369 0.72726,-0.25369 0.62014,0 0.90202,0.33262 0.28188,0.33262 0.28188,1.07679 v 4.67925 z m -4.30716,0 v -5.97591 h 1.05988 l 0.1353,1.26284 v 4.71307 z m 2.24378,0 v -4.67925 q 0,-0.50739 -0.47356,-0.50739 -0.57504,0 -0.57504,0.81182 l -0.34953,-0.85692 h 0.38336 q 0.0676,-0.85692 1.02605,-0.85692 0.46792,0 0.73289,0.32135 0.27061,0.32134 0.27061,0.97531 v 4.792 z"
           style="font-size:11.5459px;line-height:1.25;font-family:'Cascadia Code PL';-inkscape-font-specification:'Cascadia Code PL';fill:#4d4d4d;stroke-width:0.288648"
           id="path1273" />
        <path
           d="m 143.51492,231.80956 q -1.5278,0 -2.36217,-0.80055 -0.82874,-0.80618 -0.82874,-2.31143 0,-1.46579 0.70471,-2.27761 0.7047,-0.81182 1.99009,-0.81182 1.21209,0 1.8717,0.73289 0.66524,0.7329 0.66524,2.13103 0,0.41155 -0.0338,0.76672 h -4.19441 v -0.91329 h 3.14581 q 0,-0.80619 -0.38336,-1.23465 -0.38336,-0.4341 -1.05988,-0.4341 -0.76108,0 -1.1839,0.51867 -0.41719,0.51866 -0.41719,1.46578 0,1.03733 0.57504,1.57854 0.58068,0.54122 1.64619,0.54122 0.37209,0 0.7329,-0.0395 0.36081,-0.0451 0.73289,-0.11839 l 0.14658,1.04861 q -0.52994,0.10147 -0.96967,0.12966 -0.43974,0.0282 -0.778,0.0282 z"
           style="font-size:11.5459px;line-height:1.25;font-family:'Cascadia Code PL';-inkscape-font-specification:'Cascadia Code PL';fill:#4d4d4d;stroke-width:0.288648"
           id="path1275" />
        <path
           d="m 149.29914,231.80956 q -0.67651,0 -1.16135,-0.0395 -0.4792,-0.0395 -0.87947,-0.12967 l 0.1353,-1.08243 q 0.59195,0.0902 1.04296,0.13531 0.45665,0.0451 0.86256,0.0451 0.90767,0 1.31358,-0.17477 0.41154,-0.1804 0.41154,-0.5694 0,-0.27061 -0.14657,-0.40027 -0.14095,-0.13531 -0.43974,-0.2086 l -1.37559,-0.34953 q -0.88511,-0.22551 -1.30229,-0.55813 -0.41155,-0.33262 -0.41155,-1.00914 0,-0.98095 0.74981,-1.42068 0.75544,-0.43974 2.42982,-0.43974 0.4341,0 0.80618,0.0282 0.37773,0.0226 0.77236,0.0846 l -0.12403,1.03733 q -0.45665,-0.0451 -0.80618,-0.062 -0.34953,-0.0169 -0.68215,-0.0169 -1.00351,0 -1.45452,0.17477 -0.45101,0.16913 -0.45101,0.55813 0,0.25933 0.18604,0.37772 0.18605,0.11275 0.56941,0.20859 l 1.10497,0.27061 q 0.94149,0.2255 1.37559,0.60323 0.43974,0.37772 0.43974,1.09934 0,0.96404 -0.70471,1.40377 -0.70471,0.4341 -2.2607,0.4341 z"
           style="font-size:11.5459px;line-height:1.25;font-family:'Cascadia Code PL';-inkscape-font-specification:'Cascadia Code PL';fill:#4d4d4d;stroke-width:0.288648"
           id="path1277" />
        <path
           d="m 157.76689,231.69681 v -3.88998 q 0,-0.5694 -0.28188,-0.87383 -0.28189,-0.31007 -0.78927,-0.31007 -1.40942,0 -1.40942,1.71384 l -0.34953,-1.53344 h 0.46229 q 0.0507,-0.60323 0.43973,-0.89639 0.389,-0.29879 1.13881,-0.29879 0.94712,0 1.46579,0.57504 0.51866,0.57504 0.51866,1.62364 v 3.88998 z m -3.67575,0 v -8.45647 h 1.19518 v 8.45647 z"
           style="font-size:11.5459px;line-height:1.25;font-family:'Cascadia Code PL';-inkscape-font-specification:'Cascadia Code PL';fill:#4d4d4d;stroke-width:0.288648"
           id="path1279" />
      </g>
      <g
         id="g4462"
         transform="matrix(0,0.4777864,-0.4777864,0,131.80297,148.73558)">
        <path
           d="m 81.058398,211.81802 c -2.684076,0.0269 -5.584159,-0.69107 -7.41907,-2.77707 -1.935745,-2.17766 -2.298184,-5.28472 -2.019169,-8.07928 0.225159,-2.50013 1.439365,-5.02246 3.648119,-6.33997 2.214964,-1.33325 4.951862,-1.52122 7.455552,-1.11956 2.051615,0.36806 4.124701,1.52743 4.978688,3.51379 -0.913917,0.68964 -1.827834,1.37929 -2.741751,2.06893 -1.044727,-1.80962 -3.205277,-2.83617 -5.268859,-2.53617 -1.818427,0.1132 -3.516975,1.32808 -4.11261,3.06582 -0.62418,1.83301 -0.605577,3.90831 0.07451,5.72307 0.678238,1.81367 2.49913,2.96484 4.373279,3.18467 2.114762,0.2462 4.254196,-0.009 6.346607,-0.33747 0.134564,1.04288 0.269129,2.08575 0.403693,3.12863 -1.874851,0.41817 -3.804938,0.48967 -5.718989,0.50461 z"
           id="path1216"
           style="font-size:34.4485px;line-height:1.25;font-family:'Cascadia Code PL';-inkscape-font-specification:'Cascadia Code PL';stroke-width:0.861214" />
        <path
           d="m 95.559343,193.62012 c 0.0086,3.99934 -0.01729,7.99945 0.01314,11.99831 0.01989,1.2773 0.844294,2.57033 2.141988,2.84898 1.602631,0.35949 3.600689,-0.0205 4.497489,-1.52984 0.5996,-0.98159 0.74356,-2.16318 0.74842,-3.2924 0.34763,1.52506 0.69525,3.05013 1.04288,4.57519 -0.45976,0 -0.91953,0 -1.37929,0 -0.0551,1.34287 -0.84323,2.67617 -2.14252,3.14459 -1.569907,0.57121 -3.3532,0.56267 -4.935579,0.0444 -1.937315,-0.64709 -3.177485,-2.56875 -3.430077,-4.53495 -0.211764,-1.57913 -0.08996,-3.17696 -0.122409,-4.76548 0,-2.82959 0,-5.65919 0,-8.48879 1.188652,0 2.377305,0 3.565957,0 z m 10.966997,0 c 0,5.94326 0,11.88653 0,17.82979 -1.07652,0 -2.15303,0 -3.22955,0 -0.10452,-1.34933 -0.27305,-2.69581 -0.33641,-4.04698 0,-4.59427 0,-9.18854 0,-13.78281 1.18865,0 2.37731,0 3.56596,0 z"
           id="path1220-8"
           style="font-size:34.4485px;line-height:1.25;font-family:'Cascadia Code PL';-inkscape-font-specification:'Cascadia Code PL';stroke-width:0.861214" />
        <g
           id="g4563">
          <path
             d="m 133.5049,196.83956 c 0,-1.05409 0,-2.10818 0,-3.16227 3.11741,0 6.23482,0 9.35223,0 0,1.05409 0,2.10818 0,3.16227 -3.11741,0 -6.23482,0 -9.35223,0 z"
             id="path1702"
             style="font-size:34.4485px;line-height:1.25;font-family:'Cascadia Code PL';-inkscape-font-specification:'Cascadia Code PL';stroke-width:0.861214" />
          <path
             id="path1700"
             style="font-size:34.4485px;line-height:1.25;font-family:'Cascadia Code PL';-inkscape-font-specification:'Cascadia Code PL';stroke-width:0.861213"
             d="m 136.67985,200.00189 c 0,1.04283 0,2.08566 0,3.12849 0.8704,0 1.74081,0 2.61121,0 0,1.74081 0,3.48161 0,5.22242 -2.26515,0 -4.5303,0 -6.79545,0 0,1.043 0,2.08601 0,3.12901 5.28167,0 10.56335,0 15.84502,0 0,-1.043 0,-2.08601 0,-3.12901 -1.82779,0 -3.65559,0 -5.48338,0 0,-2.78363 0,-5.56727 0,-8.35091 -2.05914,0 -4.11827,0 -6.1774,0 z"
             sodipodi:nodetypes="ccccccccccc" />
        </g>
        <use
           x="0"
           y="0"
           xlink:href="#path1216"
           id="use2929"
           transform="translate(80.768112)"
           width="100%"
           height="100%" />
        <use
           x="0"
           y="0"
           xlink:href="#path1220-8"
           id="use3093"
           transform="rotate(180,109.40821,202.70797)"
           width="100%"
           height="100%" />
        <use
           x="0"
           y="0"
           xlink:href="#path1220-8"
           id="use3175"
           transform="translate(80.627731)"
           width="100%"
           height="100%" />
      </g>
      <g
         id="g1604"
         transform="matrix(0,0.49380551,-0.49380551,0,136.25445,145.05938)">
        <path
           d="m 100.28118,234.29013 v -8.56923 h 1.08243 l 0.11275,1.26284 v 7.30639 z m 2.89212,-2.48057 q -0.6878,0 -1.11062,-0.31571 -0.41719,-0.31571 -0.47356,-0.87947 h -0.51867 l 0.40591,-1.70257 q 0,0.92457 0.36081,1.40377 0.36645,0.4792 1.07116,0.4792 0.72162,0 1.0937,-0.51302 0.37208,-0.51303 0.37208,-1.51653 0,-1.05988 -0.37208,-1.60109 -0.37208,-0.54121 -1.0937,-0.54121 -0.70471,0 -1.07116,0.4792 -0.36081,0.4792 -0.36081,1.40377 l -0.40591,-1.70257 h 0.46229 q 0.0789,-0.56376 0.50739,-0.87947 0.4341,-0.31571 1.13317,-0.31571 1.17826,0 1.78149,0.80055 0.60323,0.80054 0.60323,2.35653 0,1.49962 -0.60323,2.27197 -0.60323,0.77236 -1.78149,0.77236 z"
           style="font-size:11.5459px;line-height:1.25;font-family:'Cascadia Code PL';-inkscape-font-specification:'Cascadia Code PL';fill:#4d4d4d;stroke-width:0.288648"
           id="path1265" />
        <path
           d="m 106.95616,231.69681 v -1.28539 q 1.85478,-1.02605 2.76808,-2.13103 0.91894,-1.11061 0.91894,-2.28888 0,-0.68779 -0.33826,-1.03169 -0.33826,-0.3439 -1.02605,-0.3439 -0.45665,0 -0.95277,0.26497 -0.49611,0.26497 -0.85128,0.70471 l -0.778,-0.77236 q 0.389,-0.55813 1.10498,-0.89638 0.71598,-0.33826 1.49962,-0.33826 1.26847,0 1.89425,0.60322 0.63141,0.5976 0.63141,1.80969 0,1.21209 -0.77235,2.32835 -0.76672,1.11061 -2.33963,2.13667 v 1.24028 z m 0.33825,0 v -1.07116 h 4.87093 v 1.07116 z"
           style="font-size:11.5459px;line-height:1.25;font-family:'Cascadia Code PL';-inkscape-font-specification:'Cascadia Code PL';fill:#4d4d4d;stroke-width:0.288648"
           id="path1267" />
        <use
           x="0"
           y="0"
           xlink:href="#path1265"
           id="use3275"
           transform="translate(13.517253)"
           width="100%"
           height="100%" />
      </g>
      <g
         id="g1599"
         transform="matrix(0,0.49380551,-0.49380551,0,136.25445,145.05938)">
        <path
           d="m 32.61481,231.32472 -0.823096,-0.68779 3.980178,-4.52139 0.823097,0.66524 z m -0.823096,0.37209 v -1.05988 h 4.916028 v 1.05988 z m 0,-4.91603 v -1.05988 h 4.803275 v 1.05988 z"
           style="font-size:11.5459px;line-height:1.25;font-family:'Cascadia Code PL';-inkscape-font-specification:'Cascadia Code PL';fill:#4d4d4d;stroke-width:0.288648"
           id="path1247" />
        <path
           d="m 41.533567,231.80956 q -1.527802,0 -2.362174,-0.80055 -0.828734,-0.80618 -0.828734,-2.31143 0,-1.46579 0.704706,-2.27761 0.704706,-0.81182 1.990089,-0.81182 1.212094,0 1.871699,0.73289 0.665242,0.7329 0.665242,2.13103 0,0.41155 -0.03383,0.76672 H 39.34616 v -0.91329 h 3.145807 q 0,-0.80619 -0.38336,-1.23465 -0.38336,-0.4341 -1.059877,-0.4341 -0.761083,0 -1.183906,0.51867 -0.417186,0.51866 -0.417186,1.46578 0,1.03733 0.57504,1.57854 0.580677,0.54122 1.646193,0.54122 0.372084,0 0.732894,-0.0395 0.360809,-0.0451 0.732894,-0.11839 l 0.146579,1.04861 q -0.529939,0.10147 -0.969676,0.12966 -0.439736,0.0282 -0.777995,0.0282 z"
           style="font-size:11.5459px;line-height:1.25;font-family:'Cascadia Code PL';-inkscape-font-specification:'Cascadia Code PL';fill:#4d4d4d;stroke-width:0.288648"
           id="path1249" />
        <path
           d="m 47.374169,229.12604 -0.349534,-1.8717 h 0.462287 q 0.101477,-1.64619 1.646193,-1.64619 0.924574,0 1.34176,0.52994 0.417185,0.52994 0.417185,1.71384 h -1.183905 q 0,-0.65396 -0.197318,-0.94148 -0.19168,-0.28752 -0.625779,-0.28752 -0.761082,0 -1.138804,0.65396 -0.372085,0.64833 -0.372085,1.84915 z m -2.525666,2.57077 v -1.0486 h 3.991454 v 1.0486 z m 1.330485,0 v -5.97591 h 0.969675 l 0.225506,1.71385 v 4.26206 z m -1.104979,-4.92731 v -1.0486 h 1.995727 l 0.112753,1.0486 z"
           style="font-size:11.5459px;line-height:1.25;font-family:'Cascadia Code PL';-inkscape-font-specification:'Cascadia Code PL';fill:#4d4d4d;stroke-width:0.288648"
           id="path1251" />
        <path
           d="m 54.545256,231.80956 q -1.240282,0 -1.928075,-0.81182 -0.687793,-0.81182 -0.687793,-2.28888 0,-1.48271 0.687793,-2.28889 0.687793,-0.81182 1.928075,-0.81182 1.24592,0 1.928075,0.81182 0.687793,0.80618 0.687793,2.28889 0,1.47706 -0.687793,2.28888 -0.682155,0.81182 -1.928075,0.81182 z m 0,-1.07115 q 0.659605,0 1.014777,-0.52994 0.360809,-0.52994 0.360809,-1.49961 0,-0.97532 -0.360809,-1.49962 -0.355172,-0.52994 -1.014777,-0.52994 -0.659604,0 -1.020414,0.52994 -0.355172,0.5243 -0.355172,1.49962 0,0.96967 0.355172,1.49961 0.36081,0.52994 1.020414,0.52994 z"
           style="font-size:11.5459px;line-height:1.25;font-family:'Cascadia Code PL';-inkscape-font-specification:'Cascadia Code PL';fill:#4d4d4d;stroke-width:0.288648"
           id="path1253" />
        <path
           d="m 62.9183,231.80956 q -1.527802,0 -2.362174,-0.80055 -0.828734,-0.80618 -0.828734,-2.31143 0,-1.46579 0.783633,-2.27761 0.789271,-0.81182 2.249421,-0.81182 0.873835,0 1.493977,0.32698 0.625778,0.32135 0.890748,0.9133 l -0.918937,0.69343 q -0.253694,-0.41155 -0.648329,-0.63705 -0.394635,-0.22551 -0.86256,-0.22551 -0.845647,0 -1.313572,0.51303 -0.467924,0.50739 -0.467924,1.44887 0,1.02042 0.546851,1.56163 0.55249,0.53558 1.572904,0.53558 0.417186,0 0.834372,-0.0395 0.417185,-0.0395 0.811821,-0.10711 l 0.135303,1.0486 q -0.462287,0.10148 -0.9584,0.1353 -0.490475,0.0338 -0.9584,0.0338 z"
           style="font-size:11.5459px;line-height:1.25;font-family:'Cascadia Code PL';-inkscape-font-specification:'Cascadia Code PL';fill:#4d4d4d;stroke-width:0.288648"
           id="path1255" />
        <path
           d="m 81.522535,231.69681 v -5.46852 q 0,-3.10071 2.830098,-3.10071 0.642692,0 1.240283,0.11276 l -0.124029,1.03732 q -0.355171,-0.0451 -0.625778,-0.062 -0.270607,-0.0169 -0.524302,-0.0169 -1.601091,0 -1.601091,1.97317 v 5.5249 z m -1.882974,-3.6081 v -1.0486 h 5.524893 v 1.0486 z"
           style="font-size:11.5459px;line-height:1.25;font-family:'Cascadia Code PL';-inkscape-font-specification:'Cascadia Code PL';fill:#4d4d4d;stroke-width:0.288648"
           id="path1261" />
        <use
           x="0"
           y="0"
           xlink:href="#path1253"
           id="use3357"
           transform="translate(14.578604)"
           width="100%"
           height="100%" />
        <use
           x="0"
           y="0"
           xlink:href="#path1220-8"
           id="use3521"
           transform="matrix(-0.33500781,0,0,-0.33500781,109.12543,296.56123)"
           width="100%"
           height="100%"
           style="fill:#4d4d4d;fill-opacity:1" />
      </g>
      <g
         id="g1615"
         transform="matrix(0,0.49380551,-0.49380551,0,136.25445,145.05938)">
        <path
           d="m 172.72299,231.69681 -2.13667,-5.97591 h 1.27411 l 1.60673,4.96113 h 0.10148 l 1.60673,-4.96113 h 1.27411 l -2.13667,5.97591 z"
           style="font-size:11.5459px;line-height:1.25;font-family:'Cascadia Code PL';-inkscape-font-specification:'Cascadia Code PL';fill:#4d4d4d;stroke-width:0.288648"
           id="path1283" />
        <use
           x="0"
           y="0"
           xlink:href="#path1265"
           id="use5208"
           transform="translate(77.56644)"
           width="100%"
           height="100%" />
        <use
           x="0"
           y="0"
           xlink:href="#use3521"
           id="use5290"
           transform="translate(111.17464)"
           width="100%"
           height="100%" />
      </g>
      <use
         x="0"
         y="0"
         xlink:href="#path1263"
         id="use5454"
         transform="translate(-4e-6,35.621864)"
         width="100%"
         height="100%" />
      <rect
         style="opacity:0.582524;fill:none;fill-opacity:1;stroke:none;stroke-width:0.0904854;stroke-miterlimit:4;stroke-dasharray:none;stroke-opacity:1"
         id="rect4748"
         width="83.909515"
         height="43.909515"
         x="-238.76651"
         y="-65.044098"
         transform="matrix(0,-1,-1,0,0,0)" />
    </g>
  </g>
</svg>
