<?xml version="1.0" encoding="UTF-8" standalone="no"?>
<svg
   width="173.22556mm"
   height="173.28191mm"
   viewBox="0 0 173.22555 173.2819"
   version="1.1"
   id="svg15"
   sodipodi:docname="fediverse_logo_proposal.svg"
   inkscape:version="1.3.2 (091e20ef0f, 2023-11-25)"
   xmlns:inkscape="http://www.inkscape.org/namespaces/inkscape"
   xmlns:sodipodi="http://sodipodi.sourceforge.net/DTD/sodipodi-0.dtd"
   xmlns="http://www.w3.org/2000/svg"
   xmlns:svg="http://www.w3.org/2000/svg">
  <defs
     id="defs15" />
  <sodipodi:namedview
     id="namedview15"
     pagecolor="#ffffff"
     bordercolor="#000000"
     borderopacity="0.25"
     inkscape:showpageshadow="2"
     inkscape:pageopacity="0.0"
     inkscape:pagecheckerboard="0"
     inkscape:deskcolor="#d1d1d1"
     inkscape:document-units="mm"
     inkscape:zoom="1.020528"
     inkscape:cx="313.56318"
     inkscape:cy="339.53013"
     inkscape:window-width="1392"
     inkscape:window-height="1212"
     inkscape:window-x="2240"
     inkscape:window-y="25"
     inkscape:window-maximized="0"
     inkscape:current-layer="svg15" />
  <path
     fill="#a730b8"
     d="m 32.718927,64.624177 a 18.2278,18.2278 0 0 1 -7.7959,7.7597 l 42.7984,42.965303 10.3182,-5.2291 z m 56.4524,56.670403 -10.3182,5.2291 21.686003,21.7708 a 18.2278,18.2278 0 0 1 7.7975,-7.7608 z"
     id="path1" />
  <path
     fill="#5496be"
     d="m 114.45923,93.904077 1.7865,11.427203 27.4149,-13.894203 a 18.2278,18.2278 0 0 1 -4.9719,-9.8124 z m -14.0658,7.128203 -57.289103,29.0339 a 18.2278,18.2278 0 0 1 4.9728,9.8133 l 54.102703,-27.4194 z"
     id="path2" />
  <path
     fill="#ce3d1a"
     d="m 54.325927,83.481477 8.1618,8.1933 29.269,-57.1387 a 18.2278,18.2278 0 0 1 -9.787,-5.0219 z m -7.1897,14.0363 -14.0022,27.335303 a 18.2278,18.2278 0 0 1 9.786,5.0214 l 12.3775,-24.1639 z"
     id="path3" />
  <path
     fill="#d0188f"
     d="m 24.685327,72.503877 a 18.2278,18.2278 0 0 1 -10.8655,1.7198 l 8.1762,52.298103 a 18.2278,18.2278 0 0 1 10.8645,-1.7198 z"
     id="path4" />
  <path
     fill="#5b36e9"
     d="m 48.120627,140.13848 a 18.2278,18.2278 0 0 1 -1.7322,10.8629 l 52.2893,8.3907 a 18.2278,18.2278 0 0 1 1.732203,-10.8629 z"
     id="path5" />
  <path
     fill="#30b873"
     d="m 119.70953,138.74578 a 18.2278,18.2278 0 0 1 9.788,5.0224 l 24.1345,-47.117003 a 18.2278,18.2278 0 0 1 -9.7875,-5.0229 z"
     id="path6" />
  <path
     fill="#ebe305"
     d="m 110.92763,24.987877 a 18.2278,18.2278 0 0 1 -7.7975,7.7608 l 37.3765,37.5207 a 18.2278,18.2278 0 0 1 7.7969,-7.7608 z"
     id="path7" />
  <path
     fill="#f47601"
     d="m 29.565127,43.455477 a 18.2278,18.2278 0 0 1 4.9723,9.8123 l 47.2478,-23.9453 a 18.2278,18.2278 0 0 1 -4.9718,-9.8113 z"
     id="path8" />
  <path
     fill="#57c115"
     d="m 103.04383,32.792077 a 18.2278,18.2278 0 0 1 -10.851103,1.8123 l 4.1853,26.8 11.420003,1.8324 z m -4.233303,44.1927 9.895503,63.363103 a 18.2278,18.2278 0 0 1 10.88,-1.6278 l -9.355,-59.903503 z"
     id="path9" />
  <path
     fill="#dbb210"
     d="m 34.571027,53.468777 a 18.2278,18.2278 0 0 1 -1.694,10.8686 l 26.8206,4.3077 5.2715,-10.2945 z m 45.9677,7.382 -5.272,10.2955 63.371303,10.1777 a 18.2278,18.2278 0 0 1 1.7606,-10.8593 z"
     id="path10" />
  <path
     fill="#ffca00"
     d="m 78.233227,15.669477 a 16.570727,16.570727 0 1 0 33.092403,1.8025 16.570727,16.570727 0 1 0 -33.092403,-1.8025"
     id="path11" />
  <path
     fill="#64ff00"
     d="m 140.10873,77.784577 a 16.570677,16.570677 0 1 0 33.0923,1.8025 16.570677,16.570677 0 1 0 -33.0923,-1.8025"
     id="path12" />
  <path
     fill="#00a3ff"
     d="m 100.14133,155.80998 a 16.570677,16.570677 0 1 0 33.0923,1.8025 16.570677,16.570677 0 1 0 -33.0923,-1.8025"
     id="path13" />
  <path
     fill="#9500ff"
     d="m 13.564527,141.91738 a 16.570677,16.570677 0 1 0 33.0923,1.8025 16.570677,16.570677 0 1 0 -33.0923,-1.8025"
     id="path14" />
  <path
     fill="#ff0000"
     d="m 0.02452687,55.305677 a 16.570677,16.570677 0 1 0 33.09230013,1.8025 16.570677,16.570677 0 1 0 -33.09230013,-1.8025"
     id="path15" />
</svg>
