<?xml version="1.0" encoding="UTF-8"?>
<svg width="800" height="800" version="1.1" viewBox="0 0 800 800" xmlns="http://www.w3.org/2000/svg">
 <path d="m666.04 392.11s12.33-258.61-271.9-258.61c-251.36 0-259.21 248.07-259.21 248.07s-36.972 284.92 265 284.92c289.63 0 266.11-274.39 266.11-274.39zm-351.42-90.365c53.33-32.626 121.46-12.685 146.99 36.379 4.8396 9.299 5.4543 23.613 2.3896 33.369-10.58 33.678-35.558 52.566-69.843 60.589 10.109-8.6523 18.154-18.466 20.714-32.024a46.907 46.907 0 0 0-8.0713-37.231 47.543 47.543 0 0 0-54.738-16.683c-21.11 8.0162-32.672 27.28-30.588 50.961 1.9366 21.995 18.626 36.252 49.854 41.668-4.6672 2.4695-8.2614 4.2888-11.779 6.2485a113.56 113.56 0 0 0-36.498 31.745c-3.1695 4.2782-5.3477 4.6228-10.175 1.6718-62.783-38.393-66.82-134.75 1.7447-176.69zm-46.99 237.24c-10.086 2.5602-19.859 6.3497-30.167 9.7325 5.0421-34.026 44.885-65.361 78.581-61.786a86.844 86.844 0 0 0-16.422 46.003c-11.196 2.0627-21.746 3.4502-31.992 6.0495zm214.6-332.2c9.967 0.36599 19.952 0.2132 29.926 0.45127 2.4909 0.16345 4.964 0.50812 7.4051 1.0304a72.144 72.144 0 0 1-7.5259 9.6543c-3.5657 3.3223-7.5952 6.57-12.731 1.5208-1.2366-1.2152-4.1556-0.93629-6.3053-0.96472-9.9172-0.12969-19.849-0.44771-29.752-0.0728a184.84 184.84 0 0 0-25.628 2.617c-1.5883 0.28426-3.9619 5.5627-3.2317 7.5099 1.7234 4.5926 4.2338 9.6578 7.9558 12.596 13.751 10.855 28.377 20.6 42.192 31.381 13.424 10.477 25.919 21.956 33.534 37.759 9.9208 20.591 10.21 42.183 5.9322 63.87-7.1421 36.204-25.465 66.2-55.133 87.987-11.955 8.7784-26.756 13.762-40.449 20.067-12.042 5.5485-24.438 10.326-36.51 15.814-21.76 9.8959-33.991 33.516-30.393 58.075 3.301 22.537 23.073 41.344 45.722 45.226 27.168 4.6584 55.2-12.998 61.849-40.614 7.4726-31.052-9.3984-58.777-40.978-67.18-1.3911-0.36954-2.7876-0.71954-5.687-1.4693 8.4462-3.7736 15.743-6.4634 22.48-10.17a618.16 618.16 0 0 0 34.609-20.542c3.3312-2.132 5.1292-2.132 7.97 0.32335 21.719 18.779 34.677 42.138 38.31 70.782 6.0122 47.406-16.429 90.959-58.757 113.28-65.487 34.538-145.62-4.7721-160.09-77.376-12.39-62.188 31.5-118.6 84.323-129.49 22.718-4.6832 43.492-14.142 59.642-31.637 10.42-11.289 15.471-20.975 17.193-25.346a70.293 70.293 0 0 0 4.8342-25.706 60.17 60.17 0 0 0-5.2678-22.027c-5.5147-12.57-26.641-32.566-31.873-36.784l-49.746-38.944c-1.7535-1.4444-3.7292-1.3396-8.0073-1.05-5.083 0.34467-18.077 1.0642-23.684-0.40508 4.5358-3.4342 16.901-8.432 22.212-12.449-16.121-10.891-34.52-6.9573-51.418-10.21 3.9068-7.2754 23.239-18.459 34.236-19.703a162.62 162.62 0 0 0-2.999-18.267c-0.67157-2.4713-3.4307-4.868-5.838-6.2804-5.8381-3.4236-12.028-6.2485-18.744-9.6525a38.972 38.972 0 0 1 20.135-6.2271 75.18 75.18 0 0 1 20.16 1.9614c11.978 2.736 21.54 0.9505 31.07-7.1919-7.501-3.0203-15.002-5.7794-22.276-9.0431a218.6 218.6 0 0 1-20.929-10.942c18.873 2.6223 37.127 9.6987 56.423 7.1137l0.49213-2.6312-44.823-10.434c26.721-2.4447 51.597-2.8497 75.154 8.6256 6.6287 3.2282 13.565 5.9002 19.918 9.5886 3.0985 1.798 5.186 5.3442 7.7284 8.1015 2.0183 2.1888 3.6421 5.1221 6.1223 6.4421 9.4162 5.0066 19.781 5.2038 30.342 4.9515l0.23097-3.5408c10.63 3.3223 22.59 15.578 22.57 24.528-17.216 0-34.421-0.0657-51.622 0.0959-1.837 0.0178-3.6634 1.3609-5.4952 2.0876 1.7411 1.0145 3.452 2.8426 5.2269 2.9084z" fill="#88171a" stroke-width="1.7766"/>
 <path d="m118.78 26.906a1.48 1.48 0 0 0-0.18899 2.369 2.233 2.233 0 0 0 3.072 0.821c0.93299-0.47 1.848-0.97 2.975-1.566-0.90799-0.775-1.636-1.415-2.385-2.032-1.318-1.086-2.411-0.404-3.473 0.408z" fill="#88171a"/>
</svg>
